<?xml version="1.0" standalone="no"?>
<svg width="142.8438255603352mm" height="142.84275436401367mm" viewBox="-131.11615107608228 -43.92228317260742 11.72767448425293 98.92047119140625" xmlns="http://www.w3.org/2000/svg" version="1.1"> <desc>RepRap polygon list - http://reprap.org</desc><polygon points="-11.654536247253418,41.47386932373047 -9.686165809631348,41.933998107910156 -7.7546305656433105,42.530128479003906 -5.869315147399902,43.259368896484375 -4.0393805503845215,44.118167877197266 -2.2737178802490234,45.102359771728516 -0.5809056758880615,46.2071647644043 1.030830979347229,47.427207946777344 2.5536611080169678,48.75656509399414 3.9801857471466064,50.18877410888672 5.303473472595215,51.716880798339844 6.51709508895874,53.333457946777344 7.615153789520264,55.03065490722656 8.592314720153809,56.80021667480469 9.443829536437988,58.63355255126953 10.16556167602539,60.52175521850586 10.754003524780273,62.45564651489258 11.20629596710205,64.42583465576172 11.520242691040039,66.42273712158203 11.694316864013672,68.4366683959961 11.72767448425293,70.45782470703125 11.62015151977539,72.47640228271484 11.372271537780762,74.48258209228516 10.985238075256348,76.46661376953125 10.460932731628418,78.41887664794922 9.801902770996094,80.32986450195312 9.011348724365234,82.19029998779297 8.093113899230957,83.99114227294922 7.0516581535339355,85.72364807128906 5.892042636871338,87.37939453125 4.619901180267334,88.95033264160156 3.2414145469665527,90.42884063720703 1.7632807493209839,91.80772399902344 0.19268174469470978,93.08029174804688 -1.4627515077590942,94.24034881591797 -3.1949756145477295,95.28227233886719 -4.995573997497559,96.20098876953125 -6.855798721313477,96.9920425415039 -8.766610145568848,97.6515884399414 -10.718725204467773,98.17642211914062 -12.702659606933594,98.5639877319336 -14.708771705627441,98.81240844726562 -16.72731590270996,98.92047119140625 -18.748485565185547,98.88765716552734 -20.76245880126953,98.71412658691406 -22.759450912475586,98.40071868896484 -24.72975730895996,97.9489517211914 -26.663806915283203,97.36103057861328 -28.552202224731445,96.63980865478516 -30.38576889038086,95.78878784179688 -32.15559387207031,94.81210327148438 -33.853084564208984,93.7145004272461 -35.46998977661133,92.50131225585938 -36.998451232910156,91.17843627929688 -38.43104553222656,89.7522964477539 -39.76081085205078,88.22982025146484 -40.98128890991211,86.61841583251953 -42.0865478515625,84.9259033203125 -43.07121276855469,83.1604995727539 -43.93050765991211,81.33079528808594 -44.66025161743164,79.4456787109375 -45.25690460205078,77.5143051147461 -45.717559814453125,75.54605865478516 -46.119606018066406,73.14559173583984 -46.3410530090332,72.5682144165039 -46.676177978515625,72.04850769042969 -47.11073684692383,71.60855865478516 -47.62627029418945,71.26704406738281 -48.200870513916016,71.03849029541016 -48.810123443603516,70.93260955810547 -70.57756805419922,70.93260955810547 -71.18682098388672,71.03849029541016 -71.76142120361328,71.26704406738281 -72.2769546508789,71.60855865478516 -72.71151733398438,72.04850769042969 -73.04663848876953,72.5682144165039 -73.2680892944336,73.14559173583984 -73.67013549804688,75.54605865478516 -74.13079071044922,77.5143051147461 -74.7274398803711,79.4456787109375 -75.45718383789062,81.33079528808594 -76.31648254394531,83.1604995727539 -77.3011474609375,84.9259033203125 -78.40640258789062,86.61841583251953 -79.62688446044922,88.22982025146484 -80.95664978027344,89.7522964477539 -82.38924407958984,91.17843627929688 -83.9177017211914,92.50131225585938 -85.53460693359375,93.7145004272461 -87.23210144042969,94.81210327148438 -89.00192260742188,95.78878784179688 -90.83548736572266,96.63980865478516 -92.72388458251953,97.36103057861328 -94.6579360961914,97.9489517211914 -96.62824249267578,98.40071868896484 -98.62523651123047,98.71412658691406 -100.63920593261719,98.88765716552734 -102.6603775024414,98.92047119140625 -104.67892456054688,98.81240844726562 -106.6850357055664,98.5639877319336 -108.6689682006836,98.17642211914062 -110.62108612060547,97.6515884399414 -112.53189086914062,96.9920425415039 -114.39212036132812,96.20098876953125 -116.19271850585938,95.28227233886719 -117.92494201660156,94.24034881591797 -119.58037567138672,93.08029174804688 -121.15097045898438,91.80772399902344 -122.62910461425781,90.42884063720703 -124.0075912475586,88.95033264160156 -125.27973937988281,87.37939453125 -126.4393539428711,85.72364807128906 -127.48080444335938,83.99114227294922 -128.3990478515625,82.19029998779297 -129.18959045410156,80.32986450195312 -129.8486328125,78.41887664794922 -130.3729248046875,76.46661376953125 -130.7599639892578,74.48258209228516 -131.00784301757812,72.47640228271484 -131.11615107608228,70.3728573301387 -131.08201599121094,68.4366683959961 -130.90792846679688,66.42273712158203 -130.593994140625,64.42583465576172 -130.14169311523438,62.45564651489258 -129.55325317382812,60.52175521850586 -128.83152770996094,58.63355255126953 -127.98001098632812,56.80021667480469 -127.00284576416016,55.03065490722656 -125.90478515625,53.333457946777344 -124.69116973876953,51.716880798339844 -123.36788177490234,50.18877410888672 -121.94135284423828,48.75656509399414 -120.41852569580078,47.427207946777344 -118.8067855834961,46.2071647644043 -117.11397552490234,45.102359771728516 -115.34831237792969,44.118167877197266 -113.51837921142578,43.259368896484375 -111.63306427001953,42.530128479003906 -109.70153045654297,41.933998107910156 -107.46766662597656,41.402225494384766 -107.09407043457031,41.22835922241211 -106.7640380859375,40.98161315917969 -106.4915771484375,40.67247009277344 -106.28825378417969,40.31405258178711 -106.16270446777344,39.92156982421875 -106.12025451660156,39.511688232421875 -106.12025451660156,38.146059455283456 -104.12025451660156,38.146059455283456 -104.12025451660156,42.99967956542969 -105.98262023925781,43.20318603515625 -107.82638549804688,43.53535079956055 -109.64268493652344,43.99457550048828 -111.42276000976562,44.57863998413086 -113.15805053710938,45.28474426269531 -114.84020233154297,46.10948181152344 -116.46111297607422,47.04888153076172 -118.01297760009766,48.09842300415039 -119.48831939697266,49.2530517578125 -120.93305647825012,50.559309576974876 -122.18145751953125,51.8548583984375 -123.38627624511719,53.28950881958008 -124.48870849609375,54.804256439208984 -125.48345184326172,56.39180374145508 -126.36570739746094,58.04450988769531 -127.13123321533203,59.75442123413086 -127.7763442993164,61.51329803466797 -128.2979278564453,63.312679290771484 -128.6934814453125,65.1438980102539 -128.96109008789062,66.99813079833984 -129.09947204589844,68.86646270751953 -129.10797119140625,70.73989868164062 -128.9865264892578,72.60940551757812 -128.73573303222656,74.46599578857422 -128.35679626464844,76.30072784423828 -127.85155487060547,78.1047592163086 -127.22241973876953,79.86941528320312 -126.47242736816406,81.58618927001953 -125.60518646240234,83.24683380126953 -124.62488555908203,84.84333038330078 -123.53622436523438,86.36801147460938 -122.3444595336914,87.81352233886719 -121.05532836914062,89.17292022705078 -119.6750259399414,90.43964385986328 -118.210205078125,91.60759735107422 -116.66792297363281,92.6711654663086 -115.05560302734375,93.6252212524414 -113.38099670410156,94.46517944335938 -111.65217590332031,95.18698120117188 -109.8774642944336,95.78716278076172 -108.0654067993164,96.26283264160156 -106.22472381591797,96.61170196533203 -104.3642807006836,96.83208465576172 -102.49303436279297,96.92292785644531 -100.6199951171875,96.8837890625 -98.7541732788086,96.71485900878906 -96.9045639038086,96.41694641113281 -95.08006286621094,95.99149322509766 -93.28945922851562,95.44053649902344 -91.54136657714844,94.76673889160156 -89.84420776367188,93.97334289550781 -88.20616149902344,93.06417083740234 -86.63509368896484,92.04359436035156 -85.13858795166016,90.9165267944336 -83.72383880615234,89.68839263916016 -82.39765930175781,88.3651123046875 -81.16643524169922,86.95305633544922 -80.03610229492188,85.45902252197266 -79.0120849609375,83.89019012451172 -78.09932708740234,82.25413513183594 -77.3022232055664,80.5587158203125 -76.62460327148438,78.81210327148438 -76.06973266601562,77.02271270751953 -75.64028930664062,75.19914245605469 -75.33832550048828,73.35018920898438 -75.16531372070312,71.4847412109375 -75.12207794189453,69.6117935180664 -75.20882415771484,67.74034881591797 -75.42513275146484,65.87943267822266 -75.76997375488281,64.0379867553711 -76.2416763305664,62.22489547729492 -76.83797454833984,60.448875427246094 -77.55599975585938,58.718482971191406 -78.39228057861328,57.04204559326172 -79.34281158447266,55.427635192871094 -80.40299987792969,53.883026123046875 -81.5677490234375,52.41565704345703 -82.83145141601562,51.032588958740234 -84.18801879882812,49.740482330322266 -85.63092041015625,48.54555892944336 -87.15321350097656,47.45356750488281 -88.74756622314453,46.46977233886719 -90.40630340576172,45.59890365600586 -92.1214370727539,44.845157623291016 -93.88471221923828,44.212162017822266 -95.68763732910156,43.702964782714844 -97.52153015136719,43.32001876831055 -99.37757110595703,43.06516647338867 -101.24681091308594,42.939632415771484 -103.12025451660156,42.944026947021484 -103.12025451660156,37.833804602286264 -100.12025451660156,37.84837701518854 -100.09309387207031,38.72129440307617 -99.95185852050781,39.309505462646484 -99.69548797607422,39.857421875 -99.33441162109375,40.342769622802734 -98.88330841064453,40.745811462402344 -98.36051940917969,41.0501594543457 -97.78729248046875,41.24344253540039 -95.91735085810238,41.596948344661314 -94.26723803208981,42.01023243331862 -92.50487167658866,42.53847650476746 -92.08665924426168,42.56650075927246 -91.62229350662528,42.49352695359994 -91.18065593891515,42.31085582830565 -90.83904968446586,42.06789444133756 -90.5556213396485,41.7590561699908 -90.34283943318587,41.397932189280255 -90.19963252942398,40.95020610413485 -90.1645708464639,40.47357689093042 -90.22832538543298,40.05924997560578 -91.0894546508789,37.66352081298828 -91.72014617919922,35.45622634887695 -92.19585418701172,33.210426330566406 -92.5142822265625,30.936986923217773 -92.67388153076172,28.646909713745117 -92.68556171493401,27.022752443230274 -92.67388153076172,26.351280212402344 -92.5142822265625,24.061203002929688 -92.19585418701172,21.787763595581055 -91.72014617919922,19.541963577270508 -91.0894546508789,17.33466911315918 -90.21425796576659,14.881499336353045 -90.1630130768317,14.465496152604828 -90.21004074180382,13.997786012600045 -90.36786189945269,13.546674901826918 -90.59144370879221,13.192079531699164 -90.88403819809173,12.891913568477321 -91.2327652328313,12.659369675325252 -91.67183342370845,12.491481393760296 -92.14577216912585,12.429958767902463 -92.56300624613505,12.470563516131733 -94.58086584151519,13.071315404959206 -96.23071441171554,13.461958280913143 -97.9825668334961,13.806251525878906 -98.5414810180664,14.037660598754883 -99.04261779785156,14.376493453979492 -99.46558380126953,14.808971405029297 -99.7931900024414,15.317511558532715 -100.01211547851562,15.881436347961426 -100.11345672607422,16.477815628051758 -100.12025451660156,17.164385323861197 -103.12025451660156,17.164385323861197 -103.12025451660156,12.054163932800293 -101.24681091308594,12.05855655670166 -99.37757110595703,11.933024406433105 -97.52153015136719,11.67817211151123 -95.68763732910156,11.295225143432617 -93.88471221923828,10.786028861999512 -92.1214370727539,10.153034210205078 -90.40630340576172,9.399287223815918 -88.74756622314453,8.528419494628906 -87.15321350097656,7.544622421264648 -85.63092041015625,6.452632904052734 -84.18801879882812,5.2577080726623535 -82.83145141601562,3.9656009674072266 -81.5677490234375,2.5825328826904297 -80.40299987792969,1.1151624917984009 -79.34281158447266,-0.4294453263282776 -78.39228057861328,-2.043853998184204 -77.55599975585938,-3.7202911376953125 -76.83797454833984,-5.450685024261475 -76.2416763305664,-7.2267045974731445 -75.76997375488281,-9.039799690246582 -75.42513275146484,-10.881239891052246 -75.20882415771484,-12.74216079711914 -75.12207794189453,-14.613601684570312 -75.16531372070312,-16.486553192138672 -75.33832550048828,-18.35199737548828 -75.64028930664062,-20.20095443725586 -76.06973266601562,-22.024520874023438 -76.62460327148438,-23.813915252685547 -77.3022232055664,-25.560527801513672 -78.09932708740234,-27.255943298339844 -79.0120849609375,-28.89200210571289 -80.03610229492188,-30.46082878112793 -81.16643524169922,-31.954866409301758 -82.39765930175781,-33.36692428588867 -83.72383880615234,-34.69020462036133 -85.13858795166016,-35.9183349609375 -86.63509368896484,-37.04540252685547 -88.20616149902344,-38.06597900390625 -89.84420776367188,-38.975154876708984 -91.54136657714844,-39.768550872802734 -93.28945922851562,-40.44234848022461 -95.08006286621094,-40.9932975769043 -96.9045639038086,-41.41875457763672 -98.7541732788086,-41.71666717529297 -100.6199951171875,-41.885597229003906 -102.49303436279297,-41.924739837646484 -104.3642807006836,-41.83389663696289 -106.22472381591797,-41.6135139465332 -108.0654067993164,-41.264644622802734 -109.8774642944336,-40.78897476196289 -111.65217590332031,-40.18879318237305 -113.38099670410156,-39.46698760986328 -115.05560302734375,-38.62703323364258 -116.66792297363281,-37.672977447509766 -118.210205078125,-36.60940933227539 -119.6750259399414,-35.44145202636719 -121.2121353149414,-34.019195556640625 -122.3444595336914,-32.81533432006836 -123.53622436523438,-31.36981964111328 -124.62488555908203,-29.84514045715332 -125.60518646240234,-28.248640060424805 -126.47242736816406,-26.588001251220703 -127.22241973876953,-24.87122344970703 -127.85155487060547,-23.1065673828125 -128.35679626464844,-21.302534103393555 -128.73573303222656,-19.467805862426758 -128.9865264892578,-17.611217498779297 -129.10797119140625,-15.741706848144531 -129.09947204589844,-13.86827564239502 -128.96109008789062,-11.999942779541016 -128.6934814453125,-10.14570426940918 -128.2979278564453,-8.31448745727539 -127.7763442993164,-6.515108108520508 -127.13123321533203,-4.756229877471924 -126.36570739746094,-3.046320915222168 -125.48345184326172,-1.3936136960983276 -124.48870849609375,0.1939346045255661 -123.38627624511719,1.7086806297302246 -122.18145751953125,3.14333176612854 -120.88005065917969,4.490980625152588 -119.48831939697266,5.745138645172119 -118.01297760009766,6.899767875671387 -116.46111297607422,7.949309349060059 -114.84020233154297,8.888710021972656 -113.15805053710938,9.713446617126465 -111.42276000976562,10.419548988342285 -109.64268493652344,11.003617286682129 -107.82638549804688,11.462839126586914 -105.98262023925781,11.795003890991211 -104.12025451660156,11.998512268066406 -104.12025451660156,16.852132378212637 -106.12025451660156,16.852132378212637 -106.13689754196845,15.234007083047254 -106.2374267578125,14.811981201171875 -106.41563415527344,14.440431594848633 -106.66619110107422,14.113288879394531 -106.97848510742188,13.844440460205078 -107.33924102783203,13.645299911499023 -107.733154296875,13.524319648742676 -109.70153045654297,13.064191818237305 -111.63306427001953,12.468061447143555 -113.51837921142578,11.738823890686035 -115.34831237792969,10.880022048950195 -117.11397552490234,9.895829200744629 -118.8067855834961,8.791027069091797 -120.41852569580078,7.570983409881592 -121.94135284423828,6.241626739501953 -123.36788177490234,4.809415817260742 -124.69116973876953,3.281309127807617 -125.90478515625,1.664731502532959 -127.00284576416016,-0.03246253728866577 -127.98001098632812,-1.8020268678665161 -128.83152770996094,-3.6353635787963867 -129.55325317382812,-5.52356481552124 -130.14169311523438,-7.457456588745117 -130.593994140625,-9.427641868591309 -130.90792846679688,-11.424549102783203 -131.088119448035,-13.676116781225492 -131.11537170410156,-15.459635734558105 -131.00784301757812,-17.478208541870117 -130.7599639892578,-19.48438835144043 -130.3729248046875,-21.468427658081055 -129.8486328125,-23.420682907104492 -129.18959045410156,-25.33167266845703 -128.3990478515625,-27.192110061645508 -127.48080444335938,-28.99295425415039 -126.4393539428711,-30.725460052490234 -125.27973937988281,-32.381202697753906 -124.0075912475586,-33.952144622802734 -122.62910461425781,-35.43064880371094 -121.15097045898438,-36.80953598022461 -119.58037567138672,-38.08209991455078 -117.92494201660156,-39.24216079711914 -116.19271850585938,-40.284080505371094 -114.39212036132812,-41.20280075073242 -112.53189086914062,-41.99385452270508 -110.62108612060547,-42.65340042114258 -108.6689682006836,-43.17823028564453 -106.6850357055664,-43.5657958984375 -104.67892456054688,-43.81421661376953 -102.6603775024414,-43.92228317260742 -100.63920593261719,-43.889469146728516 -98.62523651123047,-43.71593475341797 -96.62824249267578,-43.40252685546875 -94.6579360961914,-42.95076370239258 -92.72388458251953,-42.36284255981445 -90.83548736572266,-41.64161682128906 -89.00192260742188,-40.79059600830078 -87.23210144042969,-39.81391143798828 -85.53460693359375,-38.71630859375 -83.9177017211914,-37.50312042236328 -82.38924407958984,-36.18024444580078 -80.95664978027344,-34.75410461425781 -79.62688446044922,-33.231632232666016 -78.40640258789062,-31.620223999023438 -77.3011474609375,-29.927709579467773 -76.31648254394531,-28.162311553955078 -75.45718383789062,-26.33260726928711 -74.7274398803711,-24.44748878479004 -74.13079071044922,-22.516115188598633 -73.67013549804688,-20.547866821289062 -73.2680892944336,-18.14739990234375 -73.04663848876953,-17.570024490356445 -72.71151733398438,-17.05031967163086 -72.2769546508789,-16.61036491394043 -71.76142120361328,-16.268856048583984 -71.18682098388672,-16.040302276611328 -70.57756805419922,-15.934415817260742 -48.810123443603516,-15.934415817260742 -48.200870513916016,-16.040302276611328 -47.62627029418945,-16.268856048583984 -47.11073684692383,-16.61036491394043 -46.676177978515625,-17.05031967163086 -46.3410530090332,-17.570024490356445 -46.119606018066406,-18.14739990234375 -45.717559814453125,-20.547866821289062 -45.25690460205078,-22.516115188598633 -44.66025161743164,-24.44748878479004 -43.93050765991211,-26.33260726928711 -43.07121276855469,-28.162311553955078 -42.0865478515625,-29.927709579467773 -40.98128890991211,-31.620223999023438 -39.76081085205078,-33.231632232666016 -38.43104553222656,-34.75410461425781 -36.998451232910156,-36.18024444580078 -35.46998977661133,-37.50312042236328 -33.853084564208984,-38.71630859375 -32.15559387207031,-39.81391143798828 -30.38576889038086,-40.79059600830078 -28.552202224731445,-41.64161682128906 -26.663806915283203,-42.36284255981445 -24.72975730895996,-42.95076370239258 -22.759450912475586,-43.40252685546875 -20.76245880126953,-43.71593475341797 -18.748485565185547,-43.889469146728516 -16.72731590270996,-43.92228317260742 -14.708771705627441,-43.81421661376953 -12.702659606933594,-43.5657958984375 -10.718725204467773,-43.17823028564453 -8.766610145568848,-42.65340042114258 -6.855798721313477,-41.99385452270508 -4.995573997497559,-41.20280075073242 -3.1949756145477295,-40.284080505371094 -1.4627515077590942,-39.24216079711914 0.19268174469470978,-38.08209991455078 1.7632807493209839,-36.80953598022461 3.2414145469665527,-35.43064880371094 4.619901180267334,-33.952144622802734 5.892042636871338,-32.381202697753906 7.0516581535339355,-30.725460052490234 8.093113899230957,-28.99295425415039 9.011348724365234,-27.192110061645508 9.801902770996094,-25.33167266845703 10.460932731628418,-23.420682907104492 10.985238075256348,-21.468427658081055 11.372271537780762,-19.48438835144043 11.62015151977539,-17.478208541870117 11.72767448425293,-15.459635734558105 11.694316864013672,-13.438475608825684 11.520242691040039,-11.424549102783203 11.20629596710205,-9.427641868591309 10.754003524780273,-7.457456588745117 10.16556167602539,-5.52356481552124 9.443829536437988,-3.6353635787963867 8.592314720153809,-1.8020268678665161 7.615153789520264,-0.03246253728866577 6.51709508895874,1.664731502532959 5.303473472595215,3.281309127807617 3.9801857471466064,4.809415817260742 2.5536611080169678,6.241626739501953 1.030830979347229,7.570983409881592 -0.5809056758880615,8.791027069091797 -2.2737178802490234,9.895829200744629 -4.0393805503845215,10.880022048950195 -5.869315147399902,11.738823890686035 -7.7546305656433105,12.468061447143555 -9.686165809631348,13.064191818237305 -11.920025825500488,13.595963478088379 -12.293622016906738,13.769832611083984 -12.623655319213867,14.016575813293457 -12.896116256713867,14.325719833374023 -13.099437713623047,14.684139251708984 -13.22498893737793,15.076620101928711 -13.267439842224121,15.48650074005127 -13.267439842224121,16.852132378212637 -15.267439842224121,16.852132378212637 -15.267439842224121,11.998512268066406 -13.405075073242188,11.795003890991211 -11.56130599975586,11.462839126586914 -9.745010375976562,11.003617286682129 -7.964931011199951,10.419548988342285 -6.229639530181885,9.713446617126465 -4.547490119934082,8.888710021972656 -2.926581621170044,7.949309349060059 -1.374718189239502,6.899767875671387 0.10062868893146515,5.745138645172119 1.4923559427261353,4.490980625152588 2.7937629222869873,3.14333176612854 3.9985837936401367,1.7086806297302246 5.10101842880249,0.1939346045255661 6.095758438110352,-1.3936136960983276 6.9780144691467285,-3.046320915222168 7.743539810180664,-4.756229877471924 8.38864803314209,-6.515108108520508 8.910233497619629,-8.31448745727539 9.305784225463867,-10.14570426940918 9.573396682739258,-11.999942779541016 9.711782455444336,-13.86827564239502 9.720274925231934,-15.741706848144531 9.598834037780762,-17.611217498779297 9.348042488098145,-19.467805862426758 8.969109535217285,-21.302534103393555 8.463859558105469,-23.1065673828125 7.834723949432373,-24.87122344970703 7.084732532501221,-26.588001251220703 6.217496395111084,-28.248640060424805 5.237189769744873,-29.84514045715332 4.148533821105957,-31.36981964111328 2.9567689895629883,-32.81533432006836 1.6676335334777832,-34.17472839355469 0.2873338460922241,-35.44145202636719 -1.177484393119812,-36.60940933227539 -2.719768762588501,-37.672977447509766 -4.332093715667725,-38.62703323364258 -6.006696701049805,-39.46698760986328 -7.735515594482422,-40.18879318237305 -9.510226249694824,-40.78897476196289 -11.322284698486328,-41.264644622802734 -13.162965774536133,-41.6135139465332 -15.023408889770508,-41.83389663696289 -16.894655227661133,-41.924739837646484 -18.767698287963867,-41.885597229003906 -20.633516311645508,-41.71666717529297 -22.483129501342773,-41.41875457763672 -24.30763053894043,-40.9932975769043 -26.098236083984375,-40.44234848022461 -27.846324920654297,-39.768550872802734 -29.543481826782227,-38.975154876708984 -31.181533813476562,-38.06597900390625 -32.75259780883789,-37.04540252685547 -34.24910354614258,-35.9183349609375 -35.7748602259646,-34.58310125256307 -36.99003219604492,-33.36692428588867 -38.221256256103516,-31.954866409301758 -39.351593017578125,-30.46082878112793 -40.375606536865234,-28.89200210571289 -41.28836441040039,-27.255943298339844 -42.085472106933594,-25.560527801513672 -42.763092041015625,-23.813915252685547 -43.31795883178711,-22.024520874023438 -43.747406005859375,-20.20095443725586 -44.04936599731445,-18.35199737548828 -44.22237777709961,-16.486553192138672 -44.26561737060547,-14.613601684570312 -44.178871154785156,-12.74216079711914 -43.96255874633789,-10.881239891052246 -43.61771774291992,-9.039799690246582 -43.14601516723633,-7.2267045974731445 -42.54971694946289,-5.450685024261475 -41.831695556640625,-3.7202911376953125 -40.99540710449219,-2.043853998184204 -40.044883728027344,-0.4294453263282776 -38.98469161987305,1.1151624917984009 -37.819942474365234,2.5825328826904297 -36.55624008178711,3.9656009674072266 -35.19967269897461,5.2577080726623535 -33.75676727294922,6.452632904052734 -32.23447799682617,7.544622421264648 -30.64012336730957,8.528419494628906 -28.981388092041016,9.399287223815918 -27.266252517700195,10.153034210205078 -25.502979278564453,10.786028861999512 -23.700056076049805,11.295225143432617 -21.866161346435547,11.67817211151123 -20.0101261138916,11.933024406433105 -18.140884399414062,12.05855655670166 -16.267438888549805,12.054163932800293 -16.267438888549805,17.164385323861197 -19.267438888549805,17.149812917543212 -19.294597625732422,16.276897430419922 -19.435832977294922,15.68868637084961 -19.692203521728516,15.140769004821777 -20.053279876708984,14.655421257019043 -20.50438690185547,14.252379417419434 -21.027177810668945,13.948029518127441 -21.60039710998535,13.75474739074707 -23.46514868276313,13.402434202548427 -25.110255261568245,12.991044200913807 -26.882822052812116,12.459714537179025 -27.301031461991442,12.431691074223636 -27.765401481625304,12.504663764097131 -28.20703523463817,12.687333539942301 -28.548644044934917,12.930296996383731 -28.832069366604628,13.239134385581565 -29.044853180415885,13.60025885266623 -29.188058176829145,14.047982868338295 -29.223122882936877,14.524613826766654 -29.15937104286604,14.938940112666387 -28.298234939575195,17.33466911315918 -27.667543411254883,19.541963577270508 -27.191835403442383,21.787763595581055 -26.8734130859375,24.061203002929688 -26.71381378173828,26.351280212402344 -26.71381378173828,28.646909713745117 -26.8734130859375,30.936986923217773 -27.191835403442383,33.210426330566406 -27.667543411254883,35.45622634887695 -28.298234939575195,37.66352081298828 -29.17343687943321,40.11669114769393 -29.224680652569077,40.53269456509224 -29.17765233909813,41.000404705097026 -29.019831505698676,41.451516931669175 -28.796248580560132,41.806110628098395 -28.50365473975944,42.10627826501877 -28.154925940722023,42.3388196929227 -27.715861421491354,42.50670988183629 -27.241918537127276,42.568232669818826 -26.824687483265734,42.52762752581475 -24.806826265171903,41.926876773326846 -23.156977390529374,41.536234049594 -21.405126571655273,41.19194030761719 -20.846210479736328,40.96052932739258 -20.34507942199707,40.62169647216797 -19.92211151123047,40.1892204284668 -19.594505310058594,39.68067932128906 -19.375579833984375,39.11675262451172 -19.27423667907715,38.5203742980957 -19.267438888549805,37.833804602286264 -16.267438888549805,37.833804602286264 -16.267438888549805,42.944026947021484 -18.140884399414062,42.939632415771484 -20.0101261138916,43.06516647338867 -21.866161346435547,43.32001876831055 -23.700056076049805,43.702964782714844 -25.502979278564453,44.212162017822266 -27.266252517700195,44.845157623291016 -28.981388092041016,45.59890365600586 -30.64012336730957,46.46977233886719 -32.23447799682617,47.45356750488281 -33.75676727294922,48.54555892944336 -35.19967269897461,49.740482330322266 -36.55624008178711,51.032588958740234 -37.819942474365234,52.41565704345703 -38.98469161987305,53.883026123046875 -40.044883728027344,55.427635192871094 -40.99540710449219,57.04204559326172 -41.831695556640625,58.718482971191406 -42.54971694946289,60.448875427246094 -43.14601516723633,62.22489547729492 -43.61771774291992,64.0379867553711 -43.96255874633789,65.87943267822266 -44.178871154785156,67.74034881591797 -44.26561737060547,69.6117935180664 -44.22237777709961,71.4847412109375 -44.04936599731445,73.35018920898438 -43.747406005859375,75.19914245605469 -43.31795883178711,77.02271270751953 -42.763092041015625,78.81210327148438 -42.085472106933594,80.5587158203125 -41.28836441040039,82.25413513183594 -40.375606536865234,83.89019012451172 -39.351593017578125,85.45902252197266 -38.221256256103516,86.95305633544922 -36.99003219604492,88.3651123046875 -35.66385269165039,89.68839263916016 -34.24910354614258,90.9165267944336 -32.75259780883789,92.04359436035156 -31.181533813476562,93.06417083740234 -29.543481826782227,93.97334289550781 -27.846324920654297,94.76673889160156 -26.098236083984375,95.44053649902344 -24.30763053894043,95.99149322509766 -22.483129501342773,96.41694641113281 -20.633516311645508,96.71485900878906 -18.767698287963867,96.8837890625 -16.894655227661133,96.92292785644531 -15.023408889770508,96.83208465576172 -13.162965774536133,96.61170196533203 -11.322284698486328,96.26283264160156 -9.510226249694824,95.78716278076172 -7.735515594482422,95.18698120117188 -6.006696701049805,94.46517944335938 -4.332093715667725,93.6252212524414 -2.719768762588501,92.6711654663086 -1.177484393119812,91.60759735107422 0.2873338460922241,90.43964385986328 1.6676335334777832,89.17292022705078 2.9567689895629883,87.81352233886719 4.148533821105957,86.36801147460938 5.237189769744873,84.84333038330078 6.217496395111084,83.24683380126953 7.084732532501221,81.58618927001953 7.834723949432373,79.86941528320312 8.463859558105469,78.1047592163086 8.969109535217285,76.30072784423828 9.348042488098145,74.46599578857422 9.598834037780762,72.60940551757812 9.720274925231934,70.73989868164062 9.711782455444336,68.86646270751953 9.573396682739258,66.99813079833984 9.305784225463867,65.1438980102539 8.910233497619629,63.312679290771484 8.38864803314209,61.51329803466797 7.743539810180664,59.75442123413086 6.9780144691467285,58.04450988769531 6.095758438110352,56.39180374145508 5.10101842880249,54.804256439208984 3.9985837936401367,53.28950881958008 2.7937629222869873,51.8548583984375 1.4923559427261353,50.50720977783203 0.10062868893146515,49.2530517578125 -1.374718189239502,48.09842300415039 -2.926581621170044,47.04888153076172 -4.547490119934082,46.10948181152344 -6.229639530181885,45.28474426269531 -7.964931011199951,44.57863998413086 -9.745010375976562,43.99457550048828 -11.56130599975586,43.53535079956055 -13.405075073242188,43.20318603515625 -15.267439842224121,42.99967956542969 -15.267439842224121,38.146059455283456 -13.267439842224121,38.146059455283456 -13.250797313868278,39.76418349233234 -13.150262832641602,40.18621063232422 -12.972063064575195,40.55775833129883 -12.7214994430542,40.88490295410156 -12.409209251403809,41.153751373291016 -12.048450469970703,41.35289001464844 " /><polygon points="-13.267439842224121,22.499095916748047 -13.267439842224121,19.442465247519785 -15.267439842224121,19.442465247519785 -15.267439842224121,22.499095916748047 " /><polygon points="-106.12025451660156,22.499095916748047 -104.12025451660156,22.499095916748047 -104.12025451660156,19.442465247519785 -106.12025451660156,19.442465247519785 " /><polygon points="-106.12025451660156,32.49909591674805 -106.12025451660156,35.55572658597631 -104.12025451660156,35.55572658597631 -104.12025451660156,32.49909591674805 " /><polygon points="-13.267439842224121,32.49909591674805 -15.267439842224121,32.49909591674805 -15.267439842224121,35.55572658597631 -13.267439842224121,35.55572658597631 " /><polygon points="-45.73092471637225,64.37302094977998 -45.29288941899476,62.47070173860172 -44.65446548513137,60.31011993708671 -44.62644281372559,59.891911319456995 -44.69941438780006,59.42754018402411 -44.88208551309435,58.985906431011244 -45.12504913166049,58.64429952806313 -45.4338851714092,58.36087341484381 -45.79500980061857,58.14808769368392 -46.24273365416593,58.004882373021246 -46.71936668206763,57.96982069006117 -47.13369201429305,58.03357141433298 -49.5294189453125,58.89470672607422 -51.73671340942383,59.52539825439453 -53.98251724243164,60.00110626220703 -56.25595474243164,60.31953048706055 -58.5460319519043,60.4791259765625 -60.8416633605957,60.4791259765625 -63.131736755371094,60.31953048706055 -65.4051742553711,60.00110626220703 -67.6509780883789,59.52539825439453 -69.8582763671875,58.89470672607422 -72.31144065559783,58.01950557776581 -72.72744407299615,57.96826133732975 -73.1951570930978,58.015289650800696 -73.64626708807191,58.17311015995074 -74.00086078450113,58.396694200888305 -74.30102618982346,58.689288041689 -74.53357143242465,59.03801572492739 -74.7014593897402,59.47708103570767 -74.76298217772273,59.95102424432116 -74.72237861681788,60.36825450663309 -74.12781370661877,62.35315031413071 -73.724371045066,64.050607626753 -73.42417426528587,65.76923017826044 -73.22831762786016,67.502707901854 -73.13749694824219,68.92549896240234 -48.810123443603516,68.91839599609375 -48.200870513916016,68.81250762939453 -47.62627029418945,68.58395385742188 -47.11073684692383,68.24244689941406 -46.676177978515625,67.80249786376953 -46.3410530090332,67.28279113769531 -46.119606018066406,66.70541381835938 " /><polygon points="-70.57756805419922,-13.920207977294922 -71.18682098388672,-13.81432056427002 -71.76142120361328,-13.585766792297363 -72.2769546508789,-13.244257926940918 -72.71151733398438,-12.804304122924805 -73.04663848876953,-12.284598350524902 -73.2680892944336,-11.707222938537598 -73.6567699872434,-9.374831368422479 -74.09480589350524,-7.472510209547801 -74.73322601267137,-5.311929488802434 -74.76125026717637,-4.893719881735706 -74.68827934160072,-4.4293496189147845 -74.5056075678076,-3.98771642380143 -74.26264236614225,-3.6461072177298774 -73.95380790949275,-3.3626824539596782 -73.59268551188143,-3.1498975648805754 -73.14496165833407,-3.006692946360772 -72.6683248157351,-2.971629054452478 -72.25399948350969,-3.0353805976922104 -69.8582763671875,-3.8965163230895996 -67.6509780883789,-4.527207374572754 -65.4051742553711,-5.002915382385254 -63.131736755371094,-5.321339130401611 -60.8416633605957,-5.4809370040893555 -58.5460319519043,-5.4809370040893555 -56.25595474243164,-5.321339130401611 -53.98251724243164,-5.002915382385254 -51.73671340942383,-4.527207374572754 -49.5294189453125,-3.8965163230895996 -47.0762508422049,-3.0213146621813394 -46.660249007905804,-2.970070790101772 -46.192536636302975,-3.017099004629017 -45.74142664132887,-3.174919437485187 -45.386830713301606,-3.3985036357789795 -45.086665307979274,-3.6910965229053545 -44.8541216484773,-4.0398253219427716 -44.68623369116176,-4.4788901201231965 -44.62471090317922,-4.95283260871247 -44.66531446408408,-5.370063860461414 -45.29288941899476,-7.472510209547801 -45.73092471637225,-9.374831368422479 -46.119606018066406,-11.707222938537598 -46.3410530090332,-12.284598350524902 -46.676177978515625,-12.804304122924805 -47.11073684692383,-13.244257926940918 -47.62627029418945,-13.585766792297363 -48.200870513916016,-13.81432056427002 -48.810123443603516,-13.920207977294922 " /><polygon points="-100.12025451660156,35.867977624276236 -100.12025451660156,19.130211895244255 -103.12025451660156,19.130211895244255 -103.12025451660156,35.867977624276236 " /><polygon points="-19.267438888549805,35.867977624276236 -19.267438888549805,19.130211895244255 -16.267438888549805,19.130211895244255 -16.267438888549805,35.867977624276236 " /><polygon points="-57.72223663330078,30.89480972290039 -58.223514556884766,30.54096794128418 -58.78630447387695,30.2965145111084 -59.387054443359375,30.17167854309082 -60.000640869140625,30.17167854309082 -60.60139083862305,30.2965145111084 -61.16417694091797,30.54096794128418 -61.66545867919922,30.89480972290039 -65.4695816040039,34.70429992675781 -65.86900329589844,35.22538757324219 -66.19670867919922,35.794315338134766 -66.4470443725586,36.40127944946289 -66.61568450927734,37.03580856323242 -66.75384521484375,38.096065521240234 -66.9386978149414,38.68617630004883 -67.24061584472656,39.22584915161133 -67.64677429199219,39.69215393066406 -68.13990783691406,40.06527328491211 -68.69906616210938,40.32936477661133 -69.30049896240234,40.47319412231445 -70.15713500976562,40.57725524902344 -70.79166412353516,40.74589920043945 -71.39862823486328,40.99623107910156 -71.9675521850586,41.323936462402344 -72.48863983154297,41.723358154296875 -78.72300720214844,47.95244216918945 -79.0779037475586,48.455936431884766 -79.3224868774414,49.02130889892578 -79.44642639160156,49.62471389770508 -79.44451141357422,50.24071502685547 -79.31681823730469,50.84334182739258 -79.06873321533203,51.40718078613281 -78.7107162475586,51.90846252441406 -78.25785064697266,52.3260498046875 -76.5388412475586,53.523048400878906 -74.74291229248047,54.60123062133789 -72.8782730102539,55.555660247802734 -70.95343017578125,56.38199234008789 -68.97718048095703,57.076446533203125 -66.95854949951172,57.6358528137207 -64.90674591064453,58.05765914916992 -62.83113479614258,58.339935302734375 -60.74120330810547,58.48139572143555 -58.646488189697266,58.48139572143555 -56.556556701660156,58.339935302734375 -54.48094940185547,58.05765914916992 -52.42914581298828,57.6358528137207 -50.4105110168457,57.076446533203125 -48.434261322021484,56.38199234008789 -46.509422302246094,55.555660247802734 -44.64478302001953,54.60123062133789 -42.848854064941406,53.523048400878906 -40.969451904296875,52.19731903076172 -40.546268463134766,51.74968719482422 -40.22343063354492,51.22505569458008 -40.014556884765625,50.64554214477539 -39.92845153808594,50.035587310791016 -39.968746185302734,49.420902252197266 -40.13373947143555,48.8274040222168 -40.41647720336914,48.280120849609375 -40.80503463745117,47.802120208740234 -46.899051666259766,41.723358154296875 -47.42013931274414,41.323936462402344 -47.98906707763672,40.99623107910156 -48.59602737426758,40.74589920043945 -49.230560302734375,40.57725524902344 -50.29081726074219,40.4390983581543 -50.88092803955078,40.254241943359375 -51.42060089111328,39.95232391357422 -51.88690185546875,39.546165466308594 -52.26002502441406,39.05303192138672 -52.524112701416016,38.493873596191406 -52.667945861816406,37.89244842529297 -52.77200698852539,37.03580856323242 -52.940650939941406,36.40127944946289 -53.190982818603516,35.794315338134766 -53.5186882019043,35.22538757324219 -53.91810989379883,34.70429992675781 " /><polygon points="-56.35177968485732,29.404762150150418 -56.651973724365234,28.969425201416016 -56.896427154541016,28.406639099121094 -57.021263122558594,27.80588722229004 -57.021263122558594,27.192302703857422 -56.896427154541016,26.591550827026367 -56.651973724365234,26.028764724731445 -56.29813003540039,25.527484893798828 -52.48863983154297,21.723360061645508 -51.96755599975586,21.323936462402344 -51.398624420166016,20.996232986450195 -50.791664123535156,20.745901107788086 -50.157135009765625,20.57725715637207 -49.013546226531616,20.419171420975545 -48.50676727294922,20.254241943359375 -47.96709442138672,19.952322006225586 -47.500789642333984,19.546167373657227 -47.12766647338867,19.05303192138672 -46.86357879638672,18.493873596191406 -46.71974563598633,17.892446517944336 -46.615684509277344,17.03580665588379 -46.44704055786133,16.401277542114258 -46.19670867919922,15.794315338134766 -45.8690071105957,15.225386619567871 -45.469581604003906,14.704301834106445 -39.240501403808594,8.469932556152344 -38.737003326416016,8.115035057067871 -38.171634674072266,7.870458126068115 -37.5682258605957,7.746514320373535 -36.95222473144531,7.748428821563721 -36.34960174560547,7.8761210441589355 -35.785762786865234,8.124207496643066 -35.284481048583984,8.48222827911377 -34.86689376831055,8.935087203979492 -33.669891357421875,10.654102325439453 -32.591712951660156,12.450030326843262 -31.637279510498047,14.31467056274414 -30.810949325561523,16.23950958251953 -30.116497039794922,18.21575927734375 -29.55708885192871,20.234394073486328 -29.135284423828125,22.28619956970215 -28.85300636291504,24.361806869506836 -28.711544036865234,26.451738357543945 -28.711544036865234,28.546451568603516 -28.85300636291504,30.636383056640625 -29.135284423828125,32.71199035644531 -29.55708885192871,34.763797760009766 -30.116497039794922,36.782432556152344 -30.810949325561523,38.75868225097656 -31.637279510498047,40.68352127075195 -32.591712951660156,42.548160552978516 -33.669891357421875,44.34408950805664 -34.99562072753906,46.223487854003906 -35.44325637817383,46.64667510986328 -35.96788787841797,46.96950912475586 -36.54739761352539,47.178382873535156 -37.15735626220703,47.264488220214844 -37.77204132080078,47.22419738769531 -38.365535736083984,47.0592041015625 -38.91282272338867,46.776466369628906 -39.39082336425781,46.38790512084961 -45.469581604003906,40.293888092041016 -45.8690071105957,39.772804260253906 -46.19670867919922,39.20387649536133 -46.44704055786133,38.5969123840332 -46.615684509277344,37.96238327026367 -46.77376945312426,36.81879448702966 -46.938697814941406,36.312015533447266 -47.24061965942383,35.772342681884766 -47.64677429199219,35.30603790283203 -48.13990783691406,34.93291473388672 -48.69906997680664,34.668827056884766 -49.30049514770508,34.524993896484375 -50.157135009765625,34.42093276977539 -50.791664123535156,34.252288818359375 -51.398624420166016,34.001956939697266 -51.96755599975586,33.67425537109375 -52.48863983154297,33.27482986450195 " /><polygon points="-57.78818063129802,24.157029852704 -58.223514556884766,24.45722198486328 -58.78630447387695,24.701675415039062 -59.387054443359375,24.826513290405273 -60.000640869140625,24.826513290405273 -60.60139083862305,24.701675415039062 -61.16417694091797,24.45722198486328 -61.66545867919922,24.10338020324707 -65.4695816040039,20.293888092041016 -65.86900329589844,19.772804260253906 -66.19670867919922,19.203874588012695 -66.4470443725586,18.596912384033203 -66.61568450927734,17.962383270263672 -66.77377326782153,16.818795602828686 -66.9386978149414,16.312013626098633 -67.24061584472656,15.77234172821045 -67.64677429199219,15.306037902832031 -68.13990783691406,14.932915687561035 -68.69906616210938,14.668827056884766 -69.30049896240234,14.524994850158691 -70.15713500976562,14.420934677124023 -70.79166412353516,14.252289772033691 -71.39862823486328,14.001957893371582 -71.9675521850586,13.674254417419434 -72.48863983154297,13.27483081817627 -78.72300720214844,7.045750141143799 -79.0779037475586,6.542253017425537 -79.3224868774414,5.976882457733154 -79.44642639160156,5.373476028442383 -79.44451141357422,4.757474422454834 -79.31681823730469,4.154850006103516 -79.06873321533203,3.5910110473632812 -78.7107162475586,3.0897297859191895 -78.25785064697266,2.6721417903900146 -76.5388412475586,1.4751403331756592 -74.74291229248047,0.39696159958839417 -72.8782730102539,-0.5574716925621033 -70.95343017578125,-1.3838015794754028 -68.97718048095703,-2.0782551765441895 -66.95854949951172,-2.6376616954803467 -64.90674591064453,-3.05946683883667 -62.83113479614258,-3.341744899749756 -60.74120330810547,-3.4832067489624023 -58.646488189697266,-3.4832067489624023 -56.556556701660156,-3.341744899749756 -54.48094940185547,-3.05946683883667 -52.42914581298828,-2.6376616954803467 -50.4105110168457,-2.0782551765441895 -48.434261322021484,-1.3838015794754028 -46.509422302246094,-0.5574716925621033 -44.64478302001953,0.39696159958839417 -42.848854064941406,1.4751403331756592 -40.969451904296875,2.800870180130005 -40.546268463134766,3.2485034465789795 -40.22343063354492,3.7731354236602783 -40.014556884765625,4.352646827697754 -39.92845153808594,4.962603569030762 -39.968746185302734,5.577288627624512 -40.13373947143555,6.170785903930664 -40.41647720336914,6.718071460723877 -40.80503463745117,7.196070671081543 -46.899051666259766,13.27483081817627 -47.42013931274414,13.674254417419434 -47.98906707763672,14.001957893371582 -48.59602737426758,14.252289772033691 -49.230560302734375,14.420934677124023 -50.37414685437034,14.579019063071428 -50.88092803955078,14.743947982788086 -51.42060089111328,15.045867919921875 -51.88690185546875,15.45202350616455 -52.26002502441406,15.945158004760742 -52.524112701416016,16.504316329956055 -52.667945861816406,17.105743408203125 -52.77200698852539,17.962383270263672 -52.940650939941406,18.596912384033203 -53.190982818603516,19.203874588012695 -53.5186882019043,19.772804260253906 -53.91810989379883,20.293888092041016 " /><polygon points="-80.1471939086914,46.52825927734375 -80.65068817138672,46.883155822753906 -81.21605682373047,47.12773132324219 -81.81946563720703,47.25167465209961 -82.43547058105469,47.24976348876953 -83.03809356689453,47.1220703125 -83.6019287109375,46.87398147583008 -84.10321044921875,46.515960693359375 -84.52079772949219,46.06310272216797 -85.71780395507812,44.34408950805664 -86.79598236083984,42.548160552978516 -87.75041198730469,40.68352127075195 -88.57674407958984,38.75868225097656 -89.27119445800781,36.782432556152344 -89.83060455322266,34.763797760009766 -90.25241088867188,32.71199035644531 -90.53468322753906,30.636383056640625 -90.6761474609375,28.546451568603516 -90.68349304131698,26.886391704660127 -90.61743980947358,25.584416869733104 -90.53468322753906,24.361806869506836 -90.25241088867188,22.28619956970215 -89.83060455322266,20.234394073486328 -89.27119445800781,18.21575927734375 -88.57674407958984,16.23950958251953 -87.75041198730469,14.31467056274414 -86.79598236083984,12.450030326843262 -85.71780395507812,10.654102325439453 -84.39207458496094,8.774701118469238 -83.9444351196289,8.351515769958496 -83.41980743408203,8.028679847717285 -82.84029388427734,7.8198065757751465 -82.23033905029297,7.733701229095459 -81.61565399169922,7.7739949226379395 -81.02215576171875,7.938988208770752 -80.47486877441406,8.221724510192871 -79.99687194824219,8.610283851623535 -73.9181137084961,14.704301834106445 -73.51868438720703,15.225386619567871 -73.19098663330078,15.794315338134766 -72.9406509399414,16.401277542114258 -72.77201080322266,17.03580665588379 -72.61392204467847,18.179395114868385 -72.4489974975586,18.686176300048828 -72.1470718383789,19.225849151611328 -71.74092102050781,19.69215202331543 -71.24778747558594,20.065275192260742 -70.6886215209961,20.329362869262695 -70.08719635009766,20.473196029663086 -69.23056030273438,20.57725715637207 -68.59603118896484,20.745901107788086 -67.98906707763672,20.996232986450195 -67.42013549804688,21.323936462402344 -66.89905548095703,21.723360061645508 -63.089561462402344,25.527484893798828 -62.7357177734375,26.028764724731445 -62.491268157958984,26.591550827026367 -62.36642837524414,27.192302703857422 -62.36642837524414,27.80588722229004 -62.491268157958984,28.406639099121094 -62.7357177734375,28.969425201416016 -63.089561462402344,29.470706939697266 -66.89905548095703,33.27482986450195 -67.42013549804688,33.67425537109375 -67.98906707763672,34.001956939697266 -68.59603118896484,34.252288818359375 -69.23056030273438,34.42093276977539 -70.37414527127112,34.57901771362231 -70.88092803955078,34.74394607543945 -71.42060089111328,35.045867919921875 -71.88690185546875,35.452022552490234 -72.26002502441406,35.94515609741211 -72.52411651611328,36.50431823730469 -72.6679458618164,37.105743408203125 -72.77201080322266,37.96238327026367 -72.9406509399414,38.5969123840332 -73.19098663330078,39.20387649536133 -73.51868438720703,39.772804260253906 -73.9181137084961,40.293888092041016 " /><polygon points="-70.11096954345703,16.267831802368164 -70.43418884277344,16.430503845214844 -70.70005798339844,16.675966262817383 -70.8879623413086,16.985200881958008 -70.98335266113281,17.334251403808594 -70.97883605957031,17.696073532104492 -70.87476348876953,18.042634963989258 -70.67919921875,18.347084045410156 -70.40728759765625,18.585832595825195 -70.08010864257812,18.740386962890625 -69.7229995727539,18.798768997192383 -69.36363220214844,18.75645637512207 -69.02984619140625,18.616727828979492 -68.74750518798828,18.390409469604492 -68.53849029541016,18.095033645629883 -68.41898345947266,17.753488540649414 -68.39824676513672,17.39223289489746 -68.47789001464844,17.039257049560547 -68.65174102783203,16.721906661987305 -68.90633392333984,16.464771270751953 -69.22193908691406,16.287771224975586 -69.57410430908203,16.204622268676758 " /><polygon points="-69.2645034790039,36.27204132080078 -69.61935424804688,36.20123291015625 -69.97998046875,36.23097610473633 -70.31843566894531,36.358970642089844 -70.60850524902344,36.57529830932617 -70.82770538330078,36.863197326660156 -70.95906066894531,37.20036315917969 -70.99238586425781,37.56067657470703 -70.92510986328125,37.91621780395508 -70.76243591308594,38.23944091796875 -70.51697540283203,38.505306243896484 -70.2077407836914,38.69321060180664 -69.85868835449219,38.78860092163086 -69.49686431884766,38.78408432006836 -69.15030670166016,38.68001174926758 -68.84585571289062,38.48444747924805 -68.60710906982422,38.21253967285156 -68.45255279541016,37.885353088378906 -68.39417266845703,37.52824401855469 -68.43648529052734,37.16887664794922 -68.57621765136719,36.8350944519043 -68.80253601074219,36.55275344848633 " /><polygon points="-50.64900207519531,36.61723709106445 -50.85507583618164,36.9146728515625 -50.9711799621582,37.25739288330078 -50.988319396972656,37.61883544921875 -50.90517044067383,37.97100067138672 -50.72816848754883,38.28660583496094 -50.47103500366211,38.54119873046875 -50.1536865234375,38.715049743652344 -49.80070877075195,38.79469680786133 -49.439453125,38.77396011352539 -49.09790802001953,38.65445327758789 -48.80253219604492,38.4454345703125 -48.57621383666992,38.1630973815918 -48.436485290527344,37.82931137084961 -48.39417266845703,37.46994400024414 -48.45255661010742,37.11283493041992 -48.60710906982422,36.78565216064453 -48.84585952758789,36.51374435424805 -49.150306701660156,36.31817626953125 -49.49686813354492,36.21410369873047 -49.85868835449219,36.20958709716797 -50.207740783691406,36.30497741699219 " /><polygon points="-49.76833724975586,18.796958923339844 -49.407711029052734,18.767213821411133 -49.06925582885742,18.63922119140625 -48.77919006347656,18.422893524169922 -48.55998992919922,18.134992599487305 -48.42863464355469,17.79782485961914 -48.39530563354492,17.43751335144043 -48.462581634521484,17.081972122192383 -48.6252555847168,16.75874900817871 -48.8707160949707,16.49288558959961 -49.179954528808594,16.30497932434082 -49.52900314331055,16.2095890045166 -49.89082336425781,16.2141056060791 -50.23738479614258,16.318178176879883 -50.54183578491211,16.513744354248047 -50.78058624267578,16.78565216064453 -50.93513870239258,17.112834930419922 -50.99384689331055,17.499095916748047 -50.93593984504332,17.880152429081136 -50.78279046825264,18.20775756173498 -50.54527171828522,18.48045838584403 -50.24179008170904,18.677127105283944 " /></svg>
