<?xml version="1.0" standalone="no"?>
<svg width="142.84532796429158mm" height="142.84275436401367mm" viewBox="-131.11765348003865 -43.92228317260742 11.72767448425293 98.92047119140625" xmlns="http://www.w3.org/2000/svg" version="1.1"> <desc>RepRap polygon list - http://reprap.org</desc><polygon points="-13.267439842224121,22.499095916748047 -15.267439842224121,22.499095916748047 -15.267439842224121,11.998512268066406 -13.405075073242188,11.795003890991211 -11.56130599975586,11.462839126586914 -9.745010375976562,11.003617286682129 -7.964931011199951,10.419548988342285 -6.229639530181885,9.713446617126465 -4.547490119934082,8.888710021972656 -2.926581621170044,7.949309349060059 -1.374718189239502,6.899767875671387 0.10062868893146515,5.745138645172119 1.4923559427261353,4.490980625152588 2.7937629222869873,3.14333176612854 3.9985837936401367,1.7086806297302246 5.10101842880249,0.1939346045255661 6.095758438110352,-1.3936136960983276 6.9780144691467285,-3.046320915222168 7.743539810180664,-4.756229877471924 8.38864803314209,-6.515108108520508 8.910233497619629,-8.31448745727539 9.305784225463867,-10.14570426940918 9.573396682739258,-11.999942779541016 9.711782455444336,-13.86827564239502 9.720274925231934,-15.741706848144531 9.598834037780762,-17.611217498779297 9.348042488098145,-19.467805862426758 8.969109535217285,-21.302534103393555 8.463859558105469,-23.1065673828125 7.834723949432373,-24.87122344970703 7.084732532501221,-26.588001251220703 6.217496395111084,-28.248640060424805 5.237189769744873,-29.84514045715332 4.148533821105957,-31.36981964111328 2.9567689895629883,-32.81533432006836 1.6676335334777832,-34.17472839355469 0.2873338460922241,-35.44145202636719 -1.177484393119812,-36.60940933227539 -2.719768762588501,-37.672977447509766 -4.332093715667725,-38.62703323364258 -6.006696701049805,-39.46698760986328 -7.735515594482422,-40.18879318237305 -9.510226249694824,-40.78897476196289 -11.322284698486328,-41.264644622802734 -13.162965774536133,-41.6135139465332 -15.023408889770508,-41.83389663696289 -16.894655227661133,-41.924739837646484 -18.767698287963867,-41.885597229003906 -20.633516311645508,-41.71666717529297 -22.483129501342773,-41.41875457763672 -24.30763053894043,-40.9932975769043 -26.098236083984375,-40.44234848022461 -27.846324920654297,-39.768550872802734 -29.543481826782227,-38.975154876708984 -31.181533813476562,-38.06597900390625 -32.75259780883789,-37.04540252685547 -34.24910354614258,-35.9183349609375 -35.66385269165039,-34.69020462036133 -36.65405752245051,-33.71438416155616 -36.99003219604492,-33.36692428588867 -38.221256256103516,-31.954866409301758 -39.351593017578125,-30.46082878112793 -40.375606536865234,-28.89200210571289 -41.28836441040039,-27.255943298339844 -42.085472106933594,-25.560527801513672 -42.763092041015625,-23.813915252685547 -43.31795883178711,-22.024520874023438 -43.747406005859375,-20.20095443725586 -44.04936599731445,-18.35199737548828 -44.22237777709961,-16.486553192138672 -44.26561737060547,-14.613601684570312 -44.178871154785156,-12.74216079711914 -43.96255874633789,-10.881239891052246 -43.61771774291992,-9.039799690246582 -43.14601516723633,-7.2267045974731445 -42.54971694946289,-5.450685024261475 -41.831695556640625,-3.7202911376953125 -40.99540710449219,-2.043853998184204 -40.044883728027344,-0.4294453263282776 -38.98469161987305,1.1151624917984009 -37.819942474365234,2.5825328826904297 -36.55624008178711,3.9656009674072266 -35.19967269897461,5.2577080726623535 -33.75676727294922,6.452632904052734 -32.23447799682617,7.544622421264648 -30.64012336730957,8.528419494628906 -28.981388092041016,9.399287223815918 -27.266252517700195,10.153034210205078 -25.502979278564453,10.786028861999512 -23.700056076049805,11.295225143432617 -21.866161346435547,11.67817211151123 -20.0101261138916,11.933024406433105 -18.140884399414062,12.05855655670166 -16.267438888549805,12.054163932800293 -16.267438888549805,42.944026947021484 -18.140884399414062,42.939632415771484 -20.0101261138916,43.06516647338867 -21.866161346435547,43.32001876831055 -23.700056076049805,43.702964782714844 -25.502979278564453,44.212162017822266 -27.266252517700195,44.845157623291016 -28.981388092041016,45.59890365600586 -30.64012336730957,46.46977233886719 -32.23447799682617,47.45356750488281 -33.75676727294922,48.54555892944336 -35.19967269897461,49.740482330322266 -36.55624008178711,51.032588958740234 -37.819942474365234,52.41565704345703 -38.98469161987305,53.883026123046875 -40.044883728027344,55.427635192871094 -40.99540710449219,57.04204559326172 -41.831695556640625,58.718482971191406 -42.54971694946289,60.448875427246094 -43.14601516723633,62.22489547729492 -43.61771774291992,64.0379867553711 -43.96255874633789,65.87943267822266 -44.178871154785156,67.74034881591797 -44.26561737060547,69.6117935180664 -44.22237777709961,71.4847412109375 -44.04936599731445,73.35018920898438 -43.747406005859375,75.19914245605469 -43.31795883178711,77.02271270751953 -42.763092041015625,78.81210327148438 -42.085472106933594,80.5587158203125 -41.28836441040039,82.25413513183594 -40.375606536865234,83.89019012451172 -39.351593017578125,85.45902252197266 -38.221256256103516,86.95305633544922 -36.99003219604492,88.3651123046875 -35.66385269165039,89.68839263916016 -34.24910354614258,90.9165267944336 -32.75259780883789,92.04359436035156 -31.181533813476562,93.06417083740234 -29.543481826782227,93.97334289550781 -27.846324920654297,94.76673889160156 -26.098236083984375,95.44053649902344 -24.30763053894043,95.99149322509766 -22.483129501342773,96.41694641113281 -20.633516311645508,96.71485900878906 -18.767698287963867,96.8837890625 -16.894655227661133,96.92292785644531 -15.023408889770508,96.83208465576172 -13.162965774536133,96.61170196533203 -11.322284698486328,96.26283264160156 -9.510226249694824,95.78716278076172 -7.735515594482422,95.18698120117188 -6.006696701049805,94.46517944335938 -4.332093715667725,93.6252212524414 -2.719768762588501,92.6711654663086 -1.177484393119812,91.60759735107422 0.2873338460922241,90.43964385986328 1.6676335334777832,89.17292022705078 2.9567689895629883,87.81352233886719 4.148533821105957,86.36801147460938 5.237189769744873,84.84333038330078 6.217496395111084,83.24683380126953 7.084732532501221,81.58618927001953 7.834723949432373,79.86941528320312 8.463859558105469,78.1047592163086 8.969109535217285,76.30072784423828 9.348042488098145,74.46599578857422 9.598834037780762,72.60940551757812 9.720274925231934,70.73989868164062 9.711782455444336,68.86646270751953 9.573396682739258,66.99813079833984 9.305784225463867,65.1438980102539 8.910233497619629,63.312679290771484 8.38864803314209,61.51329803466797 7.743539810180664,59.75442123413086 6.9780144691467285,58.04450988769531 6.095758438110352,56.39180374145508 5.10101842880249,54.804256439208984 3.9985837936401367,53.28950881958008 2.7937629222869873,51.8548583984375 1.4923559427261353,50.50720977783203 0.10062868893146515,49.2530517578125 -1.374718189239502,48.09842300415039 -2.926581621170044,47.04888153076172 -4.547490119934082,46.10948181152344 -6.229639530181885,45.28474426269531 -7.964931011199951,44.57863998413086 -9.745010375976562,43.99457550048828 -11.56130599975586,43.53535079956055 -13.405075073242188,43.20318603515625 -15.267439842224121,42.99967956542969 -15.267439842224121,32.49909591674805 -13.267439842224121,32.49909591674805 -13.255158100039294,39.72207744770199 -13.150262832641602,40.18621063232422 -12.972063064575195,40.55775833129883 -12.7214994430542,40.88490295410156 -12.409209251403809,41.153751373291016 -12.048450469970703,41.35289001464844 -11.654536247253418,41.47386932373047 -9.686165809631348,41.933998107910156 -7.7546305656433105,42.530128479003906 -5.869315147399902,43.259368896484375 -4.0393805503845215,44.118167877197266 -2.2737178802490234,45.102359771728516 -0.5809056758880615,46.2071647644043 1.030830979347229,47.427207946777344 2.5536611080169678,48.75656509399414 3.9801857471466064,50.18877410888672 5.303473472595215,51.716880798339844 6.51709508895874,53.333457946777344 7.615153789520264,55.03065490722656 8.592314720153809,56.80021667480469 9.443829536437988,58.63355255126953 10.16556167602539,60.52175521850586 10.754003524780273,62.45564651489258 11.20629596710205,64.42583465576172 11.520242691040039,66.42273712158203 11.694316864013672,68.4366683959961 11.72767448425293,70.45782470703125 11.62015151977539,72.47640228271484 11.372271537780762,74.48258209228516 10.985238075256348,76.46661376953125 10.460932731628418,78.41887664794922 9.801902770996094,80.32986450195312 9.011348724365234,82.19029998779297 8.093113899230957,83.99114227294922 7.0516581535339355,85.72364807128906 5.892042636871338,87.37939453125 4.619901180267334,88.95033264160156 3.2414145469665527,90.42884063720703 1.7632807493209839,91.80772399902344 0.19268174469470978,93.08029174804688 -1.4627515077590942,94.24034881591797 -3.1949756145477295,95.28227233886719 -4.995573997497559,96.20098876953125 -6.855798721313477,96.9920425415039 -8.766610145568848,97.6515884399414 -10.718725204467773,98.17642211914062 -12.702659606933594,98.5639877319336 -14.708771705627441,98.81240844726562 -16.72731590270996,98.92047119140625 -18.748485565185547,98.88765716552734 -20.76245880126953,98.71412658691406 -22.759450912475586,98.40071868896484 -24.72975730895996,97.9489517211914 -26.663806915283203,97.36103057861328 -28.552202224731445,96.63980865478516 -30.38576889038086,95.78878784179688 -32.15559387207031,94.81210327148438 -33.853084564208984,93.7145004272461 -35.46998977661133,92.50131225585938 -36.998451232910156,91.17843627929688 -38.43104553222656,89.7522964477539 -39.76081085205078,88.22982025146484 -40.98128890991211,86.61841583251953 -42.0865478515625,84.9259033203125 -43.07121276855469,83.1604995727539 -43.93050765991211,81.33079528808594 -44.66025161743164,79.4456787109375 -45.25690460205078,77.5143051147461 -45.717559814453125,75.54605865478516 -46.119606018066406,73.14559173583984 -46.3410530090332,72.5682144165039 -46.676177978515625,72.04850769042969 -47.11073684692383,71.60855865478516 -47.62627029418945,71.26704406738281 -48.200870513916016,71.03849029541016 -48.810123443603516,70.93260955810547 -70.57756805419922,70.93260955810547 -71.18682098388672,71.03849029541016 -71.76142120361328,71.26704406738281 -72.2769546508789,71.60855865478516 -72.71151733398438,72.04850769042969 -73.04663848876953,72.5682144165039 -73.2680892944336,73.14559173583984 -73.67013549804688,75.54605865478516 -74.13079071044922,77.5143051147461 -74.7274398803711,79.4456787109375 -75.45718383789062,81.33079528808594 -76.31648254394531,83.1604995727539 -77.3011474609375,84.9259033203125 -78.40640258789062,86.61841583251953 -79.62688446044922,88.22982025146484 -80.95664978027344,89.7522964477539 -82.38924407958984,91.17843627929688 -83.9177017211914,92.50131225585938 -85.53460693359375,93.7145004272461 -87.23210144042969,94.81210327148438 -89.00192260742188,95.78878784179688 -90.83548736572266,96.63980865478516 -92.72388458251953,97.36103057861328 -94.6579360961914,97.9489517211914 -96.62824249267578,98.40071868896484 -98.62523651123047,98.71412658691406 -100.63920593261719,98.88765716552734 -102.6603775024414,98.92047119140625 -104.67892456054688,98.81240844726562 -106.6850357055664,98.5639877319336 -108.6689682006836,98.17642211914062 -110.62108612060547,97.6515884399414 -112.53189086914062,96.9920425415039 -114.39212036132812,96.20098876953125 -116.19271850585938,95.28227233886719 -117.92494201660156,94.24034881591797 -119.58037567138672,93.08029174804688 -121.15097045898438,91.80772399902344 -122.62910461425781,90.42884063720703 -124.0075912475586,88.95033264160156 -125.27973937988281,87.37939453125 -126.4393539428711,85.72364807128906 -127.48080444335938,83.99114227294922 -128.3990478515625,82.19029998779297 -129.18959045410156,80.32986450195312 -129.8486328125,78.41887664794922 -130.3729248046875,76.46661376953125 -130.7599639892578,74.48258209228516 -131.00784301757812,72.47640228271484 -131.11765348003865,70.20906478131405 -131.08201599121094,68.4366683959961 -130.90792846679688,66.42273712158203 -130.593994140625,64.42583465576172 -130.14169311523438,62.45564651489258 -129.55325317382812,60.52175521850586 -128.83152770996094,58.63355255126953 -127.98001098632812,56.80021667480469 -127.00284576416016,55.03065490722656 -125.90478515625,53.333457946777344 -124.69116973876953,51.716880798339844 -123.36788177490234,50.18877410888672 -121.94135284423828,48.75656509399414 -120.41852569580078,47.427207946777344 -118.8067855834961,46.2071647644043 -117.11397552490234,45.102359771728516 -115.34831237792969,44.118167877197266 -113.51837921142578,43.259368896484375 -111.63306427001953,42.530128479003906 -109.70153045654297,41.933998107910156 -107.46766662597656,41.402225494384766 -107.09407043457031,41.22835922241211 -106.7640380859375,40.98161315917969 -106.4915771484375,40.67247009277344 -106.28825378417969,40.31405258178711 -106.16270446777344,39.92156982421875 -106.12025451660156,39.511688232421875 -106.12025451660156,32.49909591674805 -104.12025451660156,32.49909591674805 -104.12025451660156,42.99967956542969 -105.98262023925781,43.20318603515625 -107.82638549804688,43.53535079956055 -109.64268493652344,43.99457550048828 -111.42276000976562,44.57863998413086 -113.15805053710938,45.28474426269531 -114.84020233154297,46.10948181152344 -116.46111297607422,47.04888153076172 -118.01297760009766,48.09842300415039 -119.48831939697266,49.2530517578125 -121.03523637982653,50.659742933952 -122.18145751953125,51.8548583984375 -123.38627624511719,53.28950881958008 -124.48870849609375,54.804256439208984 -125.48345184326172,56.39180374145508 -126.36570739746094,58.04450988769531 -127.13123321533203,59.75442123413086 -127.7763442993164,61.51329803466797 -128.2979278564453,63.312679290771484 -128.6934814453125,65.1438980102539 -128.96109008789062,66.99813079833984 -129.09947204589844,68.86646270751953 -129.10797119140625,70.73989868164062 -128.9865264892578,72.60940551757812 -128.73573303222656,74.46599578857422 -128.35679626464844,76.30072784423828 -127.85155487060547,78.1047592163086 -127.22241973876953,79.86941528320312 -126.47242736816406,81.58618927001953 -125.60518646240234,83.24683380126953 -124.62488555908203,84.84333038330078 -123.53622436523438,86.36801147460938 -122.3444595336914,87.81352233886719 -121.05532836914062,89.17292022705078 -119.6750259399414,90.43964385986328 -118.210205078125,91.60759735107422 -116.66792297363281,92.6711654663086 -115.05560302734375,93.6252212524414 -113.38099670410156,94.46517944335938 -111.65217590332031,95.18698120117188 -109.8774642944336,95.78716278076172 -108.0654067993164,96.26283264160156 -106.22472381591797,96.61170196533203 -104.3642807006836,96.83208465576172 -102.49303436279297,96.92292785644531 -100.6199951171875,96.8837890625 -98.7541732788086,96.71485900878906 -96.9045639038086,96.41694641113281 -95.08006286621094,95.99149322509766 -93.28945922851562,95.44053649902344 -91.54136657714844,94.76673889160156 -89.84420776367188,93.97334289550781 -88.20616149902344,93.06417083740234 -86.63509368896484,92.04359436035156 -85.13858795166016,90.9165267944336 -83.72383880615234,89.68839263916016 -82.39765930175781,88.3651123046875 -81.16643524169922,86.95305633544922 -80.03610229492188,85.45902252197266 -79.0120849609375,83.89019012451172 -78.09932708740234,82.25413513183594 -77.3022232055664,80.5587158203125 -76.62460327148438,78.81210327148438 -76.06973266601562,77.02271270751953 -75.64028930664062,75.19914245605469 -75.33832550048828,73.35018920898438 -75.16531372070312,71.4847412109375 -75.12207794189453,69.6117935180664 -75.20882415771484,67.74034881591797 -75.42513275146484,65.87943267822266 -75.76997375488281,64.0379867553711 -76.2416763305664,62.22489547729492 -76.83797454833984,60.448875427246094 -77.55599975585938,58.718482971191406 -78.39228057861328,57.04204559326172 -79.34281158447266,55.427635192871094 -80.40299987792969,53.883026123046875 -81.5677490234375,52.41565704345703 -82.83145141601562,51.032588958740234 -84.18801879882812,49.740482330322266 -85.63092041015625,48.54555892944336 -87.15321350097656,47.45356750488281 -88.74756622314453,46.46977233886719 -90.40630340576172,45.59890365600586 -92.1214370727539,44.845157623291016 -93.88471221923828,44.212162017822266 -95.68763732910156,43.702964782714844 -97.52153015136719,43.32001876831055 -99.37757110595703,43.06516647338867 -101.24681091308594,42.939632415771484 -103.12025451660156,42.944026947021484 -103.12025451660156,12.054163932800293 -101.24681091308594,12.05855655670166 -99.37757110595703,11.933024406433105 -97.52153015136719,11.67817211151123 -95.68763732910156,11.295225143432617 -93.88471221923828,10.786028861999512 -92.1214370727539,10.153034210205078 -90.40630340576172,9.399287223815918 -88.74756622314453,8.528419494628906 -87.15321350097656,7.544622421264648 -85.63092041015625,6.452632904052734 -84.18801879882812,5.2577080726623535 -82.83145141601562,3.9656009674072266 -81.5677490234375,2.5825328826904297 -80.40299987792969,1.1151624917984009 -79.34281158447266,-0.4294453263282776 -78.39228057861328,-2.043853998184204 -77.55599975585938,-3.7202911376953125 -76.83797454833984,-5.450685024261475 -76.2416763305664,-7.2267045974731445 -75.76997375488281,-9.039799690246582 -75.42513275146484,-10.881239891052246 -75.20882415771484,-12.74216079711914 -75.12207794189453,-14.613601684570312 -75.16531372070312,-16.486553192138672 -75.33832550048828,-18.35199737548828 -75.64028930664062,-20.20095443725586 -76.06973266601562,-22.024520874023438 -76.62460327148438,-23.813915252685547 -77.3022232055664,-25.560527801513672 -78.09932708740234,-27.255943298339844 -79.0120849609375,-28.89200210571289 -80.03610229492188,-30.46082878112793 -81.16643524169922,-31.954866409301758 -82.39765930175781,-33.36692428588867 -83.72383880615234,-34.69020462036133 -85.13858795166016,-35.9183349609375 -86.63509368896484,-37.04540252685547 -88.20616149902344,-38.06597900390625 -89.84420776367188,-38.975154876708984 -91.54136657714844,-39.768550872802734 -93.28945922851562,-40.44234848022461 -95.08006286621094,-40.9932975769043 -96.9045639038086,-41.41875457763672 -98.7541732788086,-41.71666717529297 -100.6199951171875,-41.885597229003906 -102.49303436279297,-41.924739837646484 -104.3642807006836,-41.83389663696289 -106.22472381591797,-41.6135139465332 -108.0654067993164,-41.264644622802734 -109.8774642944336,-40.78897476196289 -111.65217590332031,-40.18879318237305 -113.38099670410156,-39.46698760986328 -115.05560302734375,-38.62703323364258 -116.66792297363281,-37.672977447509766 -118.210205078125,-36.60940933227539 -119.6750259399414,-35.44145202636719 -121.2121353149414,-34.019195556640625 -122.3444595336914,-32.81533432006836 -123.53622436523438,-31.36981964111328 -124.62488555908203,-29.84514045715332 -125.60518646240234,-28.248640060424805 -126.47242736816406,-26.588001251220703 -127.22241973876953,-24.87122344970703 -127.85155487060547,-23.1065673828125 -128.35679626464844,-21.302534103393555 -128.73573303222656,-19.467805862426758 -128.9865264892578,-17.611217498779297 -129.10797119140625,-15.741706848144531 -129.09947204589844,-13.86827564239502 -128.96109008789062,-11.999942779541016 -128.6934814453125,-10.14570426940918 -128.2979278564453,-8.31448745727539 -127.7763442993164,-6.515108108520508 -127.13123321533203,-4.756229877471924 -126.36570739746094,-3.046320915222168 -125.48345184326172,-1.3936136960983276 -124.48870849609375,0.1939346045255661 -123.38627624511719,1.7086806297302246 -122.18145751953125,3.14333176612854 -120.88005065917969,4.490980625152588 -119.48831939697266,5.745138645172119 -118.01297760009766,6.899767875671387 -116.46111297607422,7.949309349060059 -114.84020233154297,8.888710021972656 -113.15805053710938,9.713446617126465 -111.42276000976562,10.419548988342285 -109.64268493652344,11.003617286682129 -107.82638549804688,11.462839126586914 -105.98262023925781,11.795003890991211 -104.12025451660156,11.998512268066406 -104.12025451660156,22.499095916748047 -106.12025451660156,22.499095916748047 -106.13253587548262,15.276112540801057 -106.2374267578125,14.811981201171875 -106.41563415527344,14.440431594848633 -106.66619110107422,14.113288879394531 -106.97848510742188,13.844440460205078 -107.33924102783203,13.645299911499023 -107.733154296875,13.524319648742676 -109.70153045654297,13.064191818237305 -111.63306427001953,12.468061447143555 -113.51837921142578,11.738823890686035 -115.34831237792969,10.880022048950195 -117.11397552490234,9.895829200744629 -118.8067855834961,8.791027069091797 -120.41852569580078,7.570983409881592 -121.94135284423828,6.241626739501953 -123.36788177490234,4.809415817260742 -124.69116973876953,3.281309127807617 -125.90478515625,1.664731502532959 -127.00284576416016,-0.03246253728866577 -127.98001098632812,-1.8020268678665161 -128.83152770996094,-3.6353635787963867 -129.55325317382812,-5.52356481552124 -130.14169311523438,-7.457456588745117 -130.593994140625,-9.427641868591309 -130.90792846679688,-11.424549102783203 -131.08201599121094,-13.438475608825684 -131.11537170410156,-15.459635734558105 -131.00784301757812,-17.478208541870117 -130.7599639892578,-19.48438835144043 -130.3729248046875,-21.468427658081055 -129.8486328125,-23.420682907104492 -129.18959045410156,-25.33167266845703 -128.3990478515625,-27.192110061645508 -127.48080444335938,-28.99295425415039 -126.4393539428711,-30.725460052490234 -125.27973937988281,-32.381202697753906 -124.0075912475586,-33.952144622802734 -122.62910461425781,-35.43064880371094 -121.15097045898438,-36.80953598022461 -119.58037567138672,-38.08209991455078 -117.92494201660156,-39.24216079711914 -116.19271850585938,-40.284080505371094 -114.39212036132812,-41.20280075073242 -112.53189086914062,-41.99385452270508 -110.62108612060547,-42.65340042114258 -108.6689682006836,-43.17823028564453 -106.6850357055664,-43.5657958984375 -104.67892456054688,-43.81421661376953 -102.6603775024414,-43.92228317260742 -100.63920593261719,-43.889469146728516 -98.62523651123047,-43.71593475341797 -96.62824249267578,-43.40252685546875 -94.6579360961914,-42.95076370239258 -92.72388458251953,-42.36284255981445 -90.83548736572266,-41.64161682128906 -89.00192260742188,-40.79059600830078 -87.23210144042969,-39.81391143798828 -85.53460693359375,-38.71630859375 -83.9177017211914,-37.50312042236328 -82.38924407958984,-36.18024444580078 -80.95664978027344,-34.75410461425781 -79.62688446044922,-33.231632232666016 -78.40640258789062,-31.620223999023438 -77.3011474609375,-29.927709579467773 -76.31648254394531,-28.162311553955078 -75.45718383789062,-26.33260726928711 -74.7274398803711,-24.44748878479004 -74.13079071044922,-22.516115188598633 -73.67013549804688,-20.547866821289062 -73.2680892944336,-18.14739990234375 -73.04663848876953,-17.570024490356445 -72.71151733398438,-17.05031967163086 -72.2769546508789,-16.61036491394043 -71.76142120361328,-16.268856048583984 -71.18682098388672,-16.040302276611328 -70.57756805419922,-15.934415817260742 -48.810123443603516,-15.934415817260742 -48.200870513916016,-16.040302276611328 -47.62627029418945,-16.268856048583984 -47.11073684692383,-16.61036491394043 -46.676177978515625,-17.05031967163086 -46.3410530090332,-17.570024490356445 -46.119606018066406,-18.14739990234375 -45.717559814453125,-20.547866821289062 -45.25690460205078,-22.516115188598633 -44.66025161743164,-24.44748878479004 -43.93050765991211,-26.33260726928711 -43.07121276855469,-28.162311553955078 -42.0865478515625,-29.927709579467773 -40.98128890991211,-31.620223999023438 -39.76081085205078,-33.231632232666016 -38.43104553222656,-34.75410461425781 -36.998451232910156,-36.18024444580078 -35.46998977661133,-37.50312042236328 -33.853084564208984,-38.71630859375 -32.15559387207031,-39.81391143798828 -30.38576889038086,-40.79059600830078 -28.552202224731445,-41.64161682128906 -26.663806915283203,-42.36284255981445 -24.72975730895996,-42.95076370239258 -22.759450912475586,-43.40252685546875 -20.76245880126953,-43.71593475341797 -18.748485565185547,-43.889469146728516 -16.72731590270996,-43.92228317260742 -14.708771705627441,-43.81421661376953 -12.702659606933594,-43.5657958984375 -10.718725204467773,-43.17823028564453 -8.766610145568848,-42.65340042114258 -6.855798721313477,-41.99385452270508 -4.995573997497559,-41.20280075073242 -3.1949756145477295,-40.284080505371094 -1.4627515077590942,-39.24216079711914 0.19268174469470978,-38.08209991455078 1.7632807493209839,-36.80953598022461 3.2414145469665527,-35.43064880371094 4.619901180267334,-33.952144622802734 5.892042636871338,-32.381202697753906 7.0516581535339355,-30.725460052490234 8.093113899230957,-28.99295425415039 9.011348724365234,-27.192110061645508 9.801902770996094,-25.33167266845703 10.460932731628418,-23.420682907104492 10.985238075256348,-21.468427658081055 11.372271537780762,-19.48438835144043 11.62015151977539,-17.478208541870117 11.72767448425293,-15.459635734558105 11.694316864013672,-13.438475608825684 11.520242691040039,-11.424549102783203 11.20629596710205,-9.427641868591309 10.754003524780273,-7.457456588745117 10.16556167602539,-5.52356481552124 9.443829536437988,-3.6353635787963867 8.592314720153809,-1.8020268678665161 7.615153789520264,-0.03246253728866577 6.51709508895874,1.664731502532959 5.303473472595215,3.281309127807617 3.9801857471466064,4.809415817260742 2.5536611080169678,6.241626739501953 1.030830979347229,7.570983409881592 -0.5809056758880615,8.791027069091797 -2.2737178802490234,9.895829200744629 -4.0393805503845215,10.880022048950195 -5.869315147399902,11.738823890686035 -7.7546305656433105,12.468061447143555 -9.686165809631348,13.064191818237305 -11.920025825500488,13.595963478088379 -12.293622016906738,13.769832611083984 -12.623655319213867,14.016575813293457 -12.896116256713867,14.325719833374023 -13.099437713623047,14.684139251708984 -13.22498893737793,15.076620101928711 -13.267439842224121,15.48650074005127 " /><polygon points="-45.29019213439184,62.46058046569877 -44.587879942707424,60.2007510271845 -43.78229152494306,58.19245940390196 -43.21251462713164,56.96969935924375 -42.45158305345048,55.54721170969618 -41.612182561298134,54.16962780320996 -40.69697945715051,52.841307445339545 -39.708884998729424,51.56644975943955 -38.83491559090185,50.538846970287295 -37.7231368332641,49.36991229345462 -36.48120997443371,48.2056777996655 -35.17292387000223,47.116655378960104 -33.80284650071298,46.10662907987952 -32.37575609077144,45.179105491345325 -31.13316695152408,44.45511074097819 -29.61463238277551,43.68566259274272 -28.05344679266125,43.00699950654456 -26.455052544178805,42.42147674799098 -25.300697874322086,42.062204496517914 -23.561899976294054,41.61730690873371 -21.405126571655273,41.19194030761719 -20.846210479736328,40.96052932739258 -20.34507942199707,40.62169647216797 -19.92211151123047,40.1892204284668 -19.594505310058594,39.68067932128906 -19.375579833984375,39.11675262451172 -19.27423667907715,38.5203742980957 -19.27423667907715,16.477815628051758 -19.375579833984375,15.881436347961426 -19.594505310058594,15.317511558532715 -19.92211151123047,14.808971405029297 -20.34507942199707,14.376493453979492 -20.846210479736328,14.037660598754883 -21.405126571655273,13.806251525878906 -23.561899976294054,13.380884095799251 -25.300697874322086,12.935987844993136 -27.163515046241848,12.331605286504253 -28.25606532933875,11.906370614080227 -29.770480531642693,11.232693195298395 -31.015556150194904,10.606758353373067 -32.45197828724867,9.779138453576467 -33.83844396568796,8.870387480232628 -35.17035657666154,7.883529567362802 -36.443293431709535,6.821854474105336 -37.46916592185018,5.878668565429538 -38.62498475185021,4.69024115941253 -39.71060665551534,3.43739315860196 -40.72242912813566,2.124290804708307 -41.65709182674968,0.7553038221074333 -42.51149917222594,-0.6650108701063218 -43.17255594709445,-1.891801279366509 -43.87479195466834,-3.393507871017239 -44.64820265710452,-5.372859883077004 -45.29019213439184,-7.462389523521398 -45.72992115747952,-9.369691503637368 -46.119606018066406,-11.707222938537598 -46.3410530090332,-12.284598350524902 -46.676177978515625,-12.804304122924805 -47.11073684692383,-13.244257926940918 -47.62627029418945,-13.585766792297363 -48.200870513916016,-13.81432056427002 -48.810123443603516,-13.920207977294922 -70.57756805419922,-13.920207977294922 -71.18682098388672,-13.81432056427002 -71.76142120361328,-13.585766792297363 -72.2769546508789,-13.244257926940918 -72.71151733398438,-12.804304122924805 -73.04663848876953,-12.284598350524902 -73.2680892944336,-11.707222938537598 -73.65777237238304,-9.369691503637368 -74.09750317810816,-7.462389523521398 -74.79981155509532,-5.202559990900516 -75.23727068779912,-4.051375026226352 -75.90342797972254,-2.5333593757619997 -76.65565471218812,-1.0561850437473792 -77.49144982663375,0.3752440579992013 -78.2515067821646,1.543290593955587 -79.23172106634696,2.8802486405855743 -80.28711278136912,4.158669527945229 -81.41416704134981,5.374307867178203 -82.60913426116026,6.523129024372229 -83.86803471021908,7.601325426527115 -84.96824731800926,8.456625601459864 -86.33264786935327,9.39825555812163 -87.74886524161981,10.25992668579555 -89.21217667272906,11.038782509382305 -90.7177254808864,11.732242421957588 -92.50772641259093,12.43202536902725 -94.0869954061181,12.935987844993136 -95.82579330414613,13.380884095799251 -97.9825668334961,13.806251525878906 -98.5414810180664,14.037660598754883 -99.04261779785156,14.376493453979492 -99.46558380126953,14.808971405029297 -99.7931900024414,15.317511558532715 -100.01211547851562,15.881436347961426 -100.11345672607422,16.477815628051758 -100.11345672607422,38.5203742980957 -100.01211547851562,39.11675262451172 -99.7931900024414,39.68067932128906 -99.46558380126953,40.1892204284668 -99.04261779785156,40.62169647216797 -98.5414810180664,40.96052932739258 -97.9825668334961,41.19194030761719 -95.81059097196523,41.62079196495013 -94.05713622881626,42.0712335552065 -92.21159201039316,42.67135244470365 -91.11532267186028,43.09930653120346 -89.8374308098398,43.655184901267056 -88.3524440781644,44.402162324498676 -86.91302166400472,45.233511147279636 -85.52398837259007,46.146441860332224 -84.18998669046408,47.137887435155044 -83.11335766195045,48.022691024389275 -81.88961978063094,49.14769078390975 -80.73279910389869,50.34137035273315 -79.64678016179711,51.59972437028234 -78.63518169533975,52.918527236819685 -77.70138865228401,54.293345868840724 -76.97327618652093,55.48156267311641 -76.18746819678184,56.946356769678346 -75.48745174684089,58.45397369199576 -74.7772674108237,60.26887709371773 -74.32134734612954,61.688131206884805 -74.06679028342216,62.587291754459265 -73.66064094724175,64.37981132991466 -73.49817776505098,65.2687866973806 -73.25947189389402,67.09136170015194 -73.13749694824219,68.92549896240234 -48.810123443603516,68.91839599609375 -48.200870513916016,68.81250762939453 -47.62627029418945,68.58395385742188 -47.11073684692383,68.24244689941406 -46.676177978515625,67.80249786376953 -46.3410530090332,67.28279113769531 -46.119606018066406,66.70541381835938 -45.72992115747952,64.36788225874797 " /></svg>
