<?xml version="1.0" standalone="no"?>
<!DOCTYPE svg PUBLIC "-//W3C//DTD SVG 1.1//EN"
"http://www.w3.org/Graphics/SVG/1.1/DTD/svg11.dtd"><svg width="142.84607916626976mm" height="142.84275436401367mm" viewBox="-131.11840468201683 -43.92228317260742 11.72767448425293 98.92047119140625" xmlns="http://www.w3.org/2000/svg" version="1.1"> <desc>RepRap polygon list - http://reprap.org</desc><polygon points="-13.253904373391311,15.264007215673605 -13.150262832641602,14.811981201171875 -12.972063064575195,14.440431594848633 -12.7214994430542,14.113288879394531 -12.409209251403809,13.844440460205078 -12.048450469970703,13.645299911499023 -11.654536247253418,13.524319648742676 -9.686165809631348,13.064191818237305 -7.7546305656433105,12.468061447143555 -5.869315147399902,11.738823890686035 -4.0393805503845215,10.880022048950195 -2.2737178802490234,9.895829200744629 -0.5809056758880615,8.791027069091797 1.030830979347229,7.570983409881592 2.5536611080169678,6.241626739501953 3.9801857471466064,4.809415817260742 5.303473472595215,3.281309127807617 6.51709508895874,1.664731502532959 7.615153789520264,-0.03246253728866577 8.592314720153809,-1.8020268678665161 9.443829536437988,-3.6353635787963867 10.16556167602539,-5.52356481552124 10.754003524780273,-7.457456588745117 11.20629596710205,-9.427641868591309 11.520242691040039,-11.424549102783203 11.694316864013672,-13.438475608825684 11.72767448425293,-15.459635734558105 11.62015151977539,-17.478208541870117 11.372271537780762,-19.48438835144043 10.985238075256348,-21.468427658081055 10.460932731628418,-23.420682907104492 9.801902770996094,-25.33167266845703 9.011348724365234,-27.192110061645508 8.093113899230957,-28.99295425415039 7.0516581535339355,-30.725460052490234 5.892042636871338,-32.381202697753906 4.619901180267334,-33.952144622802734 3.2414145469665527,-35.43064880371094 1.7632807493209839,-36.80953598022461 0.19268174469470978,-38.08209991455078 -1.4627515077590942,-39.24216079711914 -3.1949756145477295,-40.284080505371094 -4.995573997497559,-41.20280075073242 -6.855798721313477,-41.99385452270508 -8.766610145568848,-42.65340042114258 -10.718725204467773,-43.17823028564453 -12.702659606933594,-43.5657958984375 -14.708771705627441,-43.81421661376953 -16.72731590270996,-43.92228317260742 -18.748485565185547,-43.889469146728516 -20.76245880126953,-43.71593475341797 -22.759450912475586,-43.40252685546875 -24.72975730895996,-42.95076370239258 -26.663806915283203,-42.36284255981445 -28.552202224731445,-41.64161682128906 -30.38576889038086,-40.79059600830078 -32.15559387207031,-39.81391143798828 -33.853084564208984,-38.71630859375 -35.46998977661133,-37.50312042236328 -36.998451232910156,-36.18024444580078 -38.43104553222656,-34.75410461425781 -39.76081085205078,-33.231632232666016 -40.98128890991211,-31.620223999023438 -42.0865478515625,-29.927709579467773 -43.07121276855469,-28.162311553955078 -43.93050765991211,-26.33260726928711 -44.66025161743164,-24.44748878479004 -45.25690460205078,-22.516115188598633 -45.717559814453125,-20.547866821289062 -46.119606018066406,-18.14739990234375 -46.3410530090332,-17.570024490356445 -46.676177978515625,-17.05031967163086 -47.11073684692383,-16.61036491394043 -47.62627029418945,-16.268856048583984 -48.200870513916016,-16.040302276611328 -48.810123443603516,-15.934415817260742 -70.57756805419922,-15.934415817260742 -71.18682098388672,-16.040302276611328 -71.76142120361328,-16.268856048583984 -72.2769546508789,-16.61036491394043 -72.71151733398438,-17.05031967163086 -73.04663848876953,-17.570024490356445 -73.2680892944336,-18.14739990234375 -73.67013549804688,-20.547866821289062 -74.13079071044922,-22.516115188598633 -74.7274398803711,-24.44748878479004 -75.45718383789062,-26.33260726928711 -76.31648254394531,-28.162311553955078 -77.3011474609375,-29.927709579467773 -78.40640258789062,-31.620223999023438 -79.62688446044922,-33.231632232666016 -80.95664978027344,-34.75410461425781 -82.38924407958984,-36.18024444580078 -83.9177017211914,-37.50312042236328 -85.53460693359375,-38.71630859375 -87.23210144042969,-39.81391143798828 -89.00192260742188,-40.79059600830078 -90.83548736572266,-41.64161682128906 -92.72388458251953,-42.36284255981445 -94.6579360961914,-42.95076370239258 -96.62824249267578,-43.40252685546875 -98.62523651123047,-43.71593475341797 -100.63920593261719,-43.889469146728516 -102.6603775024414,-43.92228317260742 -104.67892456054688,-43.81421661376953 -106.6850357055664,-43.5657958984375 -108.6689682006836,-43.17823028564453 -110.62108612060547,-42.65340042114258 -112.53189086914062,-41.99385452270508 -114.39212036132812,-41.20280075073242 -116.19271850585938,-40.284080505371094 -117.92494201660156,-39.24216079711914 -119.58037567138672,-38.08209991455078 -121.15097045898438,-36.80953598022461 -122.62910461425781,-35.43064880371094 -124.0075912475586,-33.952144622802734 -125.27973937988281,-32.381202697753906 -126.4393539428711,-30.725460052490234 -127.48080444335938,-28.99295425415039 -128.3990478515625,-27.192110061645508 -129.18959045410156,-25.33167266845703 -129.8486328125,-23.420682907104492 -130.3729248046875,-21.468427658081055 -130.7599639892578,-19.48438835144043 -131.00784301757812,-17.478208541870117 -131.11840468201683,-15.128980719185591 -131.08201599121094,-13.438475608825684 -130.90792846679688,-11.424549102783203 -130.593994140625,-9.427641868591309 -130.14169311523438,-7.457456588745117 -129.55325317382812,-5.52356481552124 -128.83152770996094,-3.6353635787963867 -127.98001098632812,-1.8020268678665161 -127.00284576416016,-0.03246253728866577 -125.90478515625,1.664731502532959 -124.69116973876953,3.281309127807617 -123.36788177490234,4.809415817260742 -121.94135284423828,6.241626739501953 -120.41852569580078,7.570983409881592 -118.8067855834961,8.791027069091797 -117.11397552490234,9.895829200744629 -115.34831237792969,10.880022048950195 -113.51837921142578,11.738823890686035 -111.63306427001953,12.468061447143555 -109.70153045654297,13.064191818237305 -107.46766662597656,13.595963478088379 -107.09407043457031,13.769832611083984 -106.7640380859375,14.016575813293457 -106.4915771484375,14.325719833374023 -106.28825378417969,14.684139251708984 -106.16270446777344,15.076620101928711 -106.12025451660156,15.48650074005127 -106.12025451660156,22.499095916748047 -104.12025451660156,22.499095916748047 -104.12025451660156,11.998512268066406 -105.98262023925781,11.795003890991211 -107.82638549804688,11.462839126586914 -109.64268493652344,11.003617286682129 -111.42276000976562,10.419548988342285 -113.15805053710938,9.713446617126465 -114.84020233154297,8.888710021972656 -116.46111297607422,7.949309349060059 -118.01297760009766,6.899767875671387 -119.48831939697266,5.745138645172119 -120.88005065917969,4.490980625152588 -122.18145751953125,3.14333176612854 -123.38627624511719,1.7086806297302246 -124.48870849609375,0.1939346045255661 -125.48345184326172,-1.3936136960983276 -126.36570739746094,-3.046320915222168 -127.13123321533203,-4.756229877471924 -127.7763442993164,-6.515108108520508 -128.2979278564453,-8.31448745727539 -128.6934814453125,-10.14570426940918 -128.96109008789062,-11.999942779541016 -129.09947204589844,-13.86827564239502 -129.10797119140625,-15.741706848144531 -128.9865264892578,-17.611217498779297 -128.73573303222656,-19.467805862426758 -128.35679626464844,-21.302534103393555 -127.85155487060547,-23.1065673828125 -127.22241973876953,-24.87122344970703 -126.47242736816406,-26.588001251220703 -125.60518646240234,-28.248640060424805 -124.62488555908203,-29.84514045715332 -123.53622436523438,-31.36981964111328 -122.3444595336914,-32.81533432006836 -121.05532836914062,-34.17472839355469 -119.6750259399414,-35.44145202636719 -118.210205078125,-36.60940933227539 -116.66792297363281,-37.672977447509766 -115.05560302734375,-38.62703323364258 -113.38099670410156,-39.46698760986328 -111.65217590332031,-40.18879318237305 -109.8774642944336,-40.78897476196289 -108.0654067993164,-41.264644622802734 -106.22472381591797,-41.6135139465332 -104.3642807006836,-41.83389663696289 -102.49303436279297,-41.924739837646484 -100.6199951171875,-41.885597229003906 -98.7541732788086,-41.71666717529297 -96.9045639038086,-41.41875457763672 -95.08006286621094,-40.9932975769043 -93.28945922851562,-40.44234848022461 -91.54136657714844,-39.768550872802734 -89.84420776367188,-38.975154876708984 -88.20616149902344,-38.06597900390625 -86.63509368896484,-37.04540252685547 -85.13858795166016,-35.9183349609375 -83.72383880615234,-34.69020462036133 -82.39765930175781,-33.36692428588867 -81.16643524169922,-31.954866409301758 -80.03610229492188,-30.46082878112793 -79.0120849609375,-28.89200210571289 -78.09932708740234,-27.255943298339844 -77.3022232055664,-25.560527801513672 -76.62460327148438,-23.813915252685547 -76.06973266601562,-22.024520874023438 -75.64028930664062,-20.20095443725586 -75.33832550048828,-18.35199737548828 -75.16531372070312,-16.486553192138672 -75.12207794189453,-14.613601684570312 -75.20882415771484,-12.74216079711914 -75.42513275146484,-10.881239891052246 -75.76997375488281,-9.039799690246582 -76.2416763305664,-7.2267045974731445 -76.83797454833984,-5.450685024261475 -77.55599975585938,-3.7202911376953125 -78.39228057861328,-2.043853998184204 -79.34281158447266,-0.4294453263282776 -80.40299987792969,1.1151624917984009 -81.5677490234375,2.5825328826904297 -82.83145141601562,3.9656009674072266 -84.18801879882812,5.2577080726623535 -85.63092041015625,6.452632904052734 -87.15321350097656,7.544622421264648 -88.74756622314453,8.528419494628906 -90.40630340576172,9.399287223815918 -92.1214370727539,10.153034210205078 -93.88471221923828,10.786028861999512 -95.68763732910156,11.295225143432617 -97.52153015136719,11.67817211151123 -99.37757110595703,11.933024406433105 -101.24681091308594,12.05855655670166 -103.12025451660156,12.054163932800293 -103.12025451660156,42.944026947021484 -101.24681091308594,42.939632415771484 -99.37757110595703,43.06516647338867 -97.52153015136719,43.32001876831055 -95.68763732910156,43.702964782714844 -93.88471221923828,44.212162017822266 -92.1214370727539,44.845157623291016 -90.40630340576172,45.59890365600586 -88.74756622314453,46.46977233886719 -87.15321350097656,47.45356750488281 -85.63092041015625,48.54555892944336 -84.18801879882812,49.740482330322266 -82.83145141601562,51.032588958740234 -81.5677490234375,52.41565704345703 -80.40299987792969,53.883026123046875 -79.34281158447266,55.427635192871094 -78.39228057861328,57.04204559326172 -77.55599975585938,58.718482971191406 -76.83797454833984,60.448875427246094 -76.2416763305664,62.22489547729492 -75.76997375488281,64.0379867553711 -75.42513275146484,65.87943267822266 -75.20882415771484,67.74034881591797 -75.12207794189453,69.6117935180664 -75.16531372070312,71.4847412109375 -75.33832550048828,73.35018920898438 -75.64028930664062,75.19914245605469 -76.06973266601562,77.02271270751953 -76.62460327148438,78.81210327148438 -77.3022232055664,80.5587158203125 -78.09932708740234,82.25413513183594 -79.0120849609375,83.89019012451172 -80.03610229492188,85.45902252197266 -81.16643524169922,86.95305633544922 -82.39765930175781,88.3651123046875 -83.72383880615234,89.68839263916016 -85.13858795166016,90.9165267944336 -86.63509368896484,92.04359436035156 -88.20616149902344,93.06417083740234 -89.84420776367188,93.97334289550781 -91.54136657714844,94.76673889160156 -93.28945922851562,95.44053649902344 -95.08006286621094,95.99149322509766 -96.9045639038086,96.41694641113281 -98.7541732788086,96.71485900878906 -100.6199951171875,96.8837890625 -102.49303436279297,96.92292785644531 -104.3642807006836,96.83208465576172 -106.22472381591797,96.61170196533203 -108.0654067993164,96.26283264160156 -109.8774642944336,95.78716278076172 -111.65217590332031,95.18698120117188 -113.38099670410156,94.46517944335938 -115.05560302734375,93.6252212524414 -116.66792297363281,92.6711654663086 -118.210205078125,91.60759735107422 -119.6750259399414,90.43964385986328 -121.05532836914062,89.17292022705078 -122.3444595336914,87.81352233886719 -123.53622436523438,86.36801147460938 -124.62488555908203,84.84333038330078 -125.60518646240234,83.24683380126953 -126.47242736816406,81.58618927001953 -127.22241973876953,79.86941528320312 -127.85155487060547,78.1047592163086 -128.35679626464844,76.30072784423828 -128.73573303222656,74.46599578857422 -128.9865264892578,72.60940551757812 -129.10797119140625,70.73989868164062 -129.09947204589844,68.86646270751953 -128.96109008789062,66.99813079833984 -128.6934814453125,65.1438980102539 -128.2979278564453,63.312679290771484 -127.7763442993164,61.51329803466797 -127.13123321533203,59.75442123413086 -126.36570739746094,58.04450988769531 -125.48345184326172,56.39180374145508 -124.48870849609375,54.804256439208984 -123.38627624511719,53.28950881958008 -122.18145751953125,51.8548583984375 -120.88005065917969,50.50720977783203 -119.48831939697266,49.2530517578125 -118.01297760009766,48.09842300415039 -116.46111297607422,47.04888153076172 -114.84020233154297,46.10948181152344 -113.15805053710938,45.28474426269531 -111.42276000976562,44.57863998413086 -109.64268493652344,43.99457550048828 -107.82638549804688,43.53535079956055 -105.98262023925781,43.20318603515625 -104.12025451660156,42.99967956542969 -104.12025451660156,32.49909591674805 -106.12025451660156,32.49909591674805 -106.13378985522124,39.73418294155654 -106.2374267578125,40.18621063232422 -106.41563415527344,40.55775833129883 -106.66619110107422,40.88490295410156 -106.97848510742188,41.153751373291016 -107.33924102783203,41.35289001464844 -107.733154296875,41.47386932373047 -109.70153045654297,41.933998107910156 -111.63306427001953,42.530128479003906 -113.51837921142578,43.259368896484375 -115.34831237792969,44.118167877197266 -117.11397552490234,45.102359771728516 -118.8067855834961,46.2071647644043 -120.41852569580078,47.427207946777344 -121.94135284423828,48.75656509399414 -123.36788177490234,50.18877410888672 -124.69116973876953,51.716880798339844 -125.90478515625,53.333457946777344 -127.00284576416016,55.03065490722656 -127.98001098632812,56.80021667480469 -128.83152770996094,58.63355255126953 -129.55325317382812,60.52175521850586 -130.14169311523438,62.45564651489258 -130.593994140625,64.42583465576172 -130.90792846679688,66.42273712158203 -131.08201599121094,68.4366683959961 -131.11537170410156,70.45782470703125 -131.00784301757812,72.47640228271484 -130.7599639892578,74.48258209228516 -130.3729248046875,76.46661376953125 -129.8486328125,78.41887664794922 -129.18959045410156,80.32986450195312 -128.3990478515625,82.19029998779297 -127.48080444335938,83.99114227294922 -126.4393539428711,85.72364807128906 -125.27973937988281,87.37939453125 -124.0075912475586,88.95033264160156 -122.62910461425781,90.42884063720703 -121.15097045898438,91.80772399902344 -119.58037567138672,93.08029174804688 -117.92494201660156,94.24034881591797 -116.19271850585938,95.28227233886719 -114.39212036132812,96.20098876953125 -112.53189086914062,96.9920425415039 -110.62108612060547,97.6515884399414 -108.6689682006836,98.17642211914062 -106.6850357055664,98.5639877319336 -104.67892456054688,98.81240844726562 -102.6603775024414,98.92047119140625 -100.63920593261719,98.88765716552734 -98.62523651123047,98.71412658691406 -96.62824249267578,98.40071868896484 -94.6579360961914,97.9489517211914 -92.72388458251953,97.36103057861328 -90.83548736572266,96.63980865478516 -89.00192260742188,95.78878784179688 -87.23210144042969,94.81210327148438 -85.53460693359375,93.7145004272461 -83.9177017211914,92.50131225585938 -82.38924407958984,91.17843627929688 -80.95664978027344,89.7522964477539 -79.62688446044922,88.22982025146484 -78.40640258789062,86.61841583251953 -77.3011474609375,84.9259033203125 -76.31648254394531,83.1604995727539 -75.45718383789062,81.33079528808594 -74.7274398803711,79.4456787109375 -74.13079071044922,77.5143051147461 -73.67013549804688,75.54605865478516 -73.2680892944336,73.14559173583984 -73.04663848876953,72.5682144165039 -72.71151733398438,72.04850769042969 -72.2769546508789,71.60855865478516 -71.76142120361328,71.26704406738281 -71.18682098388672,71.03849029541016 -70.57756805419922,70.93260955810547 -48.810123443603516,70.93260955810547 -48.200870513916016,71.03849029541016 -47.62627029418945,71.26704406738281 -47.11073684692383,71.60855865478516 -46.676177978515625,72.04850769042969 -46.3410530090332,72.5682144165039 -46.119606018066406,73.14559173583984 -45.717559814453125,75.54605865478516 -45.25690460205078,77.5143051147461 -44.66025161743164,79.4456787109375 -43.93050765991211,81.33079528808594 -43.07121276855469,83.1604995727539 -42.0865478515625,84.9259033203125 -40.98128890991211,86.61841583251953 -39.76081085205078,88.22982025146484 -38.43104553222656,89.7522964477539 -36.998451232910156,91.17843627929688 -35.46998977661133,92.50131225585938 -33.853084564208984,93.7145004272461 -32.15559387207031,94.81210327148438 -30.38576889038086,95.78878784179688 -28.552202224731445,96.63980865478516 -26.663806915283203,97.36103057861328 -24.72975730895996,97.9489517211914 -22.759450912475586,98.40071868896484 -20.76245880126953,98.71412658691406 -18.748485565185547,98.88765716552734 -16.72731590270996,98.92047119140625 -14.708771705627441,98.81240844726562 -12.702659606933594,98.5639877319336 -10.718725204467773,98.17642211914062 -8.766610145568848,97.6515884399414 -6.855798721313477,96.9920425415039 -4.995573997497559,96.20098876953125 -3.1949756145477295,95.28227233886719 -1.4627515077590942,94.24034881591797 0.19268174469470978,93.08029174804688 1.7632807493209839,91.80772399902344 3.2414145469665527,90.42884063720703 4.619901180267334,88.95033264160156 5.892042636871338,87.37939453125 7.0516581535339355,85.72364807128906 8.093113899230957,83.99114227294922 9.011348724365234,82.19029998779297 9.801902770996094,80.32986450195312 10.460932731628418,78.41887664794922 10.985238075256348,76.46661376953125 11.372271537780762,74.48258209228516 11.62015151977539,72.47640228271484 11.72767448425293,70.45782470703125 11.694316864013672,68.4366683959961 11.520242691040039,66.42273712158203 11.20629596710205,64.42583465576172 10.754003524780273,62.45564651489258 10.16556167602539,60.52175521850586 9.443829536437988,58.63355255126953 8.592314720153809,56.80021667480469 7.615153789520264,55.03065490722656 6.51709508895874,53.333457946777344 5.303473472595215,51.716880798339844 3.9801857471466064,50.18877410888672 2.5536611080169678,48.75656509399414 1.030830979347229,47.427207946777344 -0.5809056758880615,46.2071647644043 -2.2737178802490234,45.102359771728516 -4.0393805503845215,44.118167877197266 -5.869315147399902,43.259368896484375 -7.7546305656433105,42.530128479003906 -9.686165809631348,41.933998107910156 -11.920025825500488,41.402225494384766 -12.293622016906738,41.22835922241211 -12.623655319213867,40.98161315917969 -12.896116256713867,40.67247009277344 -13.099437713623047,40.31405258178711 -13.22498893737793,39.92156982421875 -13.267439842224121,39.511688232421875 -13.267439842224121,32.49909591674805 -15.267439842224121,32.49909591674805 -15.267439842224121,42.99967956542969 -13.405075073242188,43.20318603515625 -11.56130599975586,43.53535079956055 -9.745010375976562,43.99457550048828 -7.964931011199951,44.57863998413086 -6.229639530181885,45.28474426269531 -4.547490119934082,46.10948181152344 -2.926581621170044,47.04888153076172 -1.374718189239502,48.09842300415039 0.10062868893146515,49.2530517578125 1.4923559427261353,50.50720977783203 2.7937629222869873,51.8548583984375 3.9985837936401367,53.28950881958008 5.10101842880249,54.804256439208984 6.095758438110352,56.39180374145508 6.9780144691467285,58.04450988769531 7.743539810180664,59.75442123413086 8.38864803314209,61.51329803466797 8.910233497619629,63.312679290771484 9.305784225463867,65.1438980102539 9.573396682739258,66.99813079833984 9.711782455444336,68.86646270751953 9.720274925231934,70.73989868164062 9.598834037780762,72.60940551757812 9.348042488098145,74.46599578857422 8.969109535217285,76.30072784423828 8.463859558105469,78.1047592163086 7.834723949432373,79.86941528320312 7.084732532501221,81.58618927001953 6.217496395111084,83.24683380126953 5.237189769744873,84.84333038330078 4.148533821105957,86.36801147460938 2.9567689895629883,87.81352233886719 1.6676335334777832,89.17292022705078 0.2873338460922241,90.43964385986328 -1.177484393119812,91.60759735107422 -2.719768762588501,92.6711654663086 -4.332093715667725,93.6252212524414 -6.006696701049805,94.46517944335938 -7.735515594482422,95.18698120117188 -9.510226249694824,95.78716278076172 -11.322284698486328,96.26283264160156 -13.162965774536133,96.61170196533203 -15.023408889770508,96.83208465576172 -16.894655227661133,96.92292785644531 -18.767698287963867,96.8837890625 -20.633516311645508,96.71485900878906 -22.483129501342773,96.41694641113281 -24.30763053894043,95.99149322509766 -26.098236083984375,95.44053649902344 -27.846324920654297,94.76673889160156 -29.543481826782227,93.97334289550781 -31.181533813476562,93.06417083740234 -32.75259780883789,92.04359436035156 -34.24910354614258,90.9165267944336 -35.66385269165039,89.68839263916016 -36.99003219604492,88.3651123046875 -38.221256256103516,86.95305633544922 -39.351593017578125,85.45902252197266 -40.375606536865234,83.89019012451172 -41.28836441040039,82.25413513183594 -42.085472106933594,80.5587158203125 -42.763092041015625,78.81210327148438 -43.31795883178711,77.02271270751953 -43.747406005859375,75.19914245605469 -44.04936599731445,73.35018920898438 -44.22237777709961,71.4847412109375 -44.26561737060547,69.6117935180664 -44.178871154785156,67.74034881591797 -43.96255874633789,65.87943267822266 -43.61771774291992,64.0379867553711 -43.14601516723633,62.22489547729492 -42.54971694946289,60.448875427246094 -41.831695556640625,58.718482971191406 -40.99540710449219,57.04204559326172 -40.044883728027344,55.427635192871094 -38.98469161987305,53.883026123046875 -37.819942474365234,52.41565704345703 -36.35932159423828,50.8336181640625 -35.19967269897461,49.740482330322266 -33.75676727294922,48.54555892944336 -32.23447799682617,47.45356750488281 -30.64012336730957,46.46977233886719 -28.981388092041016,45.59890365600586 -27.266252517700195,44.845157623291016 -25.502979278564453,44.212162017822266 -23.700056076049805,43.702964782714844 -21.866161346435547,43.32001876831055 -20.0101261138916,43.06516647338867 -18.140884399414062,42.939632415771484 -16.267438888549805,42.944026947021484 -16.267438888549805,12.054163932800293 -18.140884399414062,12.05855655670166 -20.0101261138916,11.933024406433105 -21.866161346435547,11.67817211151123 -23.700056076049805,11.295225143432617 -25.502979278564453,10.786028861999512 -27.266252517700195,10.153034210205078 -28.981388092041016,9.399287223815918 -30.64012336730957,8.528419494628906 -32.23447799682617,7.544622421264648 -33.75676727294922,6.452632904052734 -35.19967269897461,5.2577080726623535 -36.55624008178711,3.9656009674072266 -37.819942474365234,2.5825328826904297 -38.98469161987305,1.1151624917984009 -40.044883728027344,-0.4294453263282776 -40.99540710449219,-2.043853998184204 -41.831695556640625,-3.7202911376953125 -42.54971694946289,-5.450685024261475 -43.14601516723633,-7.2267045974731445 -43.61771774291992,-9.039799690246582 -43.96255874633789,-10.881239891052246 -44.178871154785156,-12.74216079711914 -44.26561737060547,-14.613601684570312 -44.22237777709961,-16.486553192138672 -44.04936599731445,-18.35199737548828 -43.747406005859375,-20.20095443725586 -43.31795883178711,-22.024520874023438 -42.763092041015625,-23.813915252685547 -42.085472106933594,-25.560527801513672 -41.28836441040039,-27.255943298339844 -40.375606536865234,-28.89200210571289 -39.351593017578125,-30.46082878112793 -38.221256256103516,-31.954866409301758 -36.75108992984671,-33.61403472792504 -35.66385269165039,-34.69020462036133 -34.24910354614258,-35.9183349609375 -32.75259780883789,-37.04540252685547 -31.181533813476562,-38.06597900390625 -29.543481826782227,-38.975154876708984 -27.846324920654297,-39.768550872802734 -26.098236083984375,-40.44234848022461 -24.30763053894043,-40.9932975769043 -22.483129501342773,-41.41875457763672 -20.633516311645508,-41.71666717529297 -18.767698287963867,-41.885597229003906 -16.894655227661133,-41.924739837646484 -15.023408889770508,-41.83389663696289 -13.162965774536133,-41.6135139465332 -11.322284698486328,-41.264644622802734 -9.510226249694824,-40.78897476196289 -7.735515594482422,-40.18879318237305 -6.006696701049805,-39.46698760986328 -4.332093715667725,-38.62703323364258 -2.719768762588501,-37.672977447509766 -1.177484393119812,-36.60940933227539 0.2873338460922241,-35.44145202636719 1.6676335334777832,-34.17472839355469 2.9567689895629883,-32.81533432006836 4.148533821105957,-31.36981964111328 5.237189769744873,-29.84514045715332 6.217496395111084,-28.248640060424805 7.084732532501221,-26.588001251220703 7.834723949432373,-24.87122344970703 8.463859558105469,-23.1065673828125 8.969109535217285,-21.302534103393555 9.348042488098145,-19.467805862426758 9.598834037780762,-17.611217498779297 9.720274925231934,-15.741706848144531 9.711782455444336,-13.86827564239502 9.573396682739258,-11.999942779541016 9.305784225463867,-10.14570426940918 8.910233497619629,-8.31448745727539 8.38864803314209,-6.515108108520508 7.743539810180664,-4.756229877471924 6.9780144691467285,-3.046320915222168 6.095758438110352,-1.3936136960983276 5.10101842880249,0.1939346045255661 3.9985837936401367,1.7086806297302246 2.7937629222869873,3.14333176612854 1.4923559427261353,4.490980625152588 0.10062868893146515,5.745138645172119 -1.374718189239502,6.899767875671387 -2.926581621170044,7.949309349060059 -4.547490119934082,8.888710021972656 -6.229639530181885,9.713446617126465 -7.964931011199951,10.419548988342285 -9.745010375976562,11.003617286682129 -11.56130599975586,11.462839126586914 -13.405075073242188,11.795003890991211 -15.267439842224121,11.998512268066406 -15.267439842224121,22.499095916748047 -13.267439842224121,22.499095916748047 " /><polygon points="-70.65536805031935,-13.9121467450187 -71.18682098388672,-13.81432056427002 -71.76142120361328,-13.585766792297363 -72.2769546508789,-13.244257926940918 -72.71151733398438,-12.804304122924805 -73.04663848876953,-12.284598350524902 -73.2680892944336,-11.707222938537598 -73.65827356495285,-9.367121571244812 -74.09885182040962,-7.4573291805081965 -74.79170023973505,-5.228269991320694 -75.27598605496318,-3.957079453671815 -75.98676386612179,-2.3613894050624546 -76.79318219440299,-0.8119936549089224 -77.28679251117634,0.04742655554392043 -78.23276326491555,1.5160312110806948 -79.26628604239126,2.9244190254897666 -80.38351210011179,4.267326424137885 -81.58024944335052,5.539740220845504 -82.29048768398461,6.230982949135828 -83.59952098789874,7.38768072429516 -84.97650995327159,8.462678811486272 -86.41630609770989,9.45195625002435 -87.91353620546398,10.35181989285603 -89.4625829678386,11.158917831015563 -90.35981203507916,11.57991491109304 -92.37194910729896,12.382208165342071 -93.99177468661773,12.908459667032801 -95.77741824425722,13.370109042424664 -97.9825668334961,13.806251525878906 -98.5414810180664,14.037660598754883 -99.04261779785156,14.376493453979492 -99.46558380126953,14.808971405029297 -99.7931900024414,15.317511558532715 -100.01211547851562,15.881436347961426 -100.11345672607422,16.477815628051758 -100.10574233778263,38.59649210089036 -100.01211547851562,39.11675262451172 -99.7931900024414,39.68067932128906 -99.46558380126953,40.1892204284668 -99.04261779785156,40.62169647216797 -98.5414810180664,40.96052932739258 -97.9825668334961,41.19194030761719 -95.75721102889665,41.632713775094544 -93.95208532717947,42.10173411615044 -92.05406440785403,42.729430786155675 -90.7810426179729,43.24366613703551 -89.87221703835188,43.639001999862806 -88.30047263642204,44.43039776335044 -86.78028544212664,45.31671447293311 -85.31745110126481,46.29456466546542 -84.51801975811749,46.880371717667074 -83.1518384252047,47.98947168296584 -81.85625261967084,49.18033219862855 -80.6361995135257,50.44841744648781 -79.49633229840335,51.78888473981688 -78.88804849043144,52.571348727364985 -77.87704291649585,54.01161994469116 -76.95628933757212,55.511255326497356 -76.12929787124388,57.06453610505548 -75.39921015917324,58.665534920218754 -74.95873995624058,59.77642115632586 -74.59903657103762,60.78616635615381 -74.03627857182387,62.704362474623544 -73.62877589832962,64.54441318149549 -73.51323349594814,65.17664473223769 -73.26404953094858,67.04490455281358 -73.13749694824219,68.92549896240234 -48.73232489266665,68.91033476381753 -48.200870513916016,68.81250762939453 -47.62627029418945,68.58395385742188 -47.11073684692383,68.24244689941406 -46.676177978515625,67.80249786376953 -46.3410530090332,67.28279113769531 -46.119606018066406,66.70541381835938 -45.72941937803315,64.36531291323196 -45.28884349209038,62.455519829247294 -44.5959936064906,60.22645955089957 -43.92832326011302,58.51647747300534 -43.207663285305756,56.95999667559198 -42.39505304793228,55.44949345921669 -41.493454863123695,53.990467663749385 -40.95388590979995,53.1971821433845 -39.92476261060254,51.82506702445852 -38.81524319475789,50.517026899326765 -37.62936965594849,49.27782930518255 -36.32420273830976,48.06969145532967 -34.94705084960683,46.94451142228172 -34.12800312980619,46.33194409090318 -32.65043113642042,45.341929247568125 -31.114536444694995,44.444994162623765 -29.52621436533829,43.644586881364184 -27.891570571734462,42.9437775675504 -26.932803430290196,42.58762044430258 -25.395919180699007,42.08973252775911 -23.61027562305952,41.62808137523175 -21.405126571655273,41.19194030761719 -20.846210479736328,40.96052932739258 -20.34507942199707,40.62169647216797 -19.92211151123047,40.1892204284668 -19.594505310058594,39.68067932128906 -19.375579833984375,39.11675262451172 -19.27423667907715,38.5203742980957 -19.2819503447771,16.401698547848735 -19.375579833984375,15.881436347961426 -19.594505310058594,15.317511558532715 -19.92211151123047,14.808971405029297 -20.34507942199707,14.376493453979492 -20.846210479736328,14.037660598754883 -21.405126571655273,13.806251525878906 -23.61027562305952,13.370109042424664 -25.395919180699007,12.908459667032801 -27.336029994129717,12.268386564557852 -28.560013291139796,11.77593894646247 -29.468838870760827,11.380603083635181 -31.030892665542446,10.598483558761757 -32.54249057373438,9.722836853084274 -33.99798034640051,8.756942661563688 -35.391935201098235,7.704420449484232 -36.157624403726594,7.075155244036578 -37.448747752301884,5.898437163481634 -38.665942207599414,4.6453755458487995 -39.804666610881,3.3206553617305605 -40.86066995882423,1.9292335085445933 -41.42459440625447,1.114221590226608 -42.34784505038829,-0.3687279113483979 -43.179245019547125,-1.9051188659455442 -43.91568169953301,-3.4892100537515116 -44.69580862587239,-5.51016381721826 -45.28884349209038,-7.4573291805081965 -45.72941937803315,-9.367121571244812 -46.119606018066406,-11.707222938537598 -46.3410530090332,-12.284598350524902 -46.676177978515625,-12.804304122924805 -47.11073684692383,-13.244257926940918 -47.62627029418945,-13.585766792297363 -48.200870513916016,-13.81432056427002 -48.810123443603516,-13.920207977294922 " /></svg>
