<?xml version="1.0" standalone="no"?>
<!DOCTYPE svg PUBLIC "-//W3C//DTD SVG 1.1//EN"
"http://www.w3.org/Graphics/SVG/1.1/DTD/svg11.dtd"><svg width="142.8430461883545mm" height="142.84275436401367mm" viewBox="-131.11537170410156 -43.92228317260742 11.72767448425293 98.92047119140625" xmlns="http://www.w3.org/2000/svg" version="1.1"> <desc>RepRap polygon list - http://reprap.org</desc><polygon points="-9.686165809631348,41.933998107910156 -11.920025825500488,41.402225494384766 -12.293622016906738,41.22835922241211 -12.623655319213867,40.98161315917969 -12.896116256713867,40.67247009277344 -13.099437713623047,40.31405258178711 -13.22498893737793,39.92156982421875 -13.267439842224121,39.511688232421875 -13.267439842224121,38.146059455283456 -15.267439842224121,38.146059455283456 -15.267439842224121,42.99967956542969 -13.405075073242188,43.20318603515625 -11.56130599975586,43.53535079956055 -9.745010375976562,43.99457550048828 -7.964931011199951,44.57863998413086 -6.229639530181885,45.28474426269531 -4.547490119934082,46.10948181152344 -2.926581621170044,47.04888153076172 -1.374718189239502,48.09842300415039 0.10062868893146515,49.2530517578125 1.4923559427261353,50.50720977783203 2.7937629222869873,51.8548583984375 3.9985837936401367,53.28950881958008 5.10101842880249,54.804256439208984 6.095758438110352,56.39180374145508 6.9780144691467285,58.04450988769531 7.743539810180664,59.75442123413086 8.38864803314209,61.51329803466797 8.910233497619629,63.312679290771484 9.305784225463867,65.1438980102539 9.573396682739258,66.99813079833984 9.711782455444336,68.86646270751953 9.720274925231934,70.73989868164062 9.598834037780762,72.60940551757812 9.348042488098145,74.46599578857422 8.969109535217285,76.30072784423828 8.463859558105469,78.1047592163086 7.834723949432373,79.86941528320312 7.084732532501221,81.58618927001953 6.217496395111084,83.24683380126953 5.237189769744873,84.84333038330078 4.148533821105957,86.36801147460938 2.9567689895629883,87.81352233886719 1.6676335334777832,89.17292022705078 0.2873338460922241,90.43964385986328 -1.177484393119812,91.60759735107422 -2.719768762588501,92.6711654663086 -4.332093715667725,93.6252212524414 -6.006696701049805,94.46517944335938 -7.735515594482422,95.18698120117188 -9.510226249694824,95.78716278076172 -11.322284698486328,96.26283264160156 -13.162965774536133,96.61170196533203 -15.023408889770508,96.83208465576172 -16.894655227661133,96.92292785644531 -18.767698287963867,96.8837890625 -20.633516311645508,96.71485900878906 -22.483129501342773,96.41694641113281 -24.30763053894043,95.99149322509766 -26.098236083984375,95.44053649902344 -27.846324920654297,94.76673889160156 -29.543481826782227,93.97334289550781 -31.181533813476562,93.06417083740234 -32.75259780883789,92.04359436035156 -34.24910354614258,90.9165267944336 -35.66385269165039,89.68839263916016 -36.99003219604492,88.3651123046875 -38.221256256103516,86.95305633544922 -39.351593017578125,85.45902252197266 -40.375606536865234,83.89019012451172 -41.28836441040039,82.25413513183594 -42.085472106933594,80.5587158203125 -42.763092041015625,78.81210327148438 -43.31795883178711,77.02271270751953 -43.747406005859375,75.19914245605469 -44.04936599731445,73.35018920898438 -44.22237777709961,71.4847412109375 -44.26561737060547,69.6117935180664 -44.178871154785156,67.74034881591797 -43.96255874633789,65.87943267822266 -43.61771774291992,64.0379867553711 -43.14601516723633,62.22489547729492 -42.54971694946289,60.448875427246094 -41.831695556640625,58.718482971191406 -40.99540710449219,57.04204559326172 -40.044883728027344,55.427635192871094 -38.98469161987305,53.883026123046875 -37.819942474365234,52.41565704345703 -36.35932159423828,50.8336181640625 -35.19967269897461,49.740482330322266 -33.75676727294922,48.54555892944336 -32.23447799682617,47.45356750488281 -30.64012336730957,46.46977233886719 -28.981388092041016,45.59890365600586 -27.266252517700195,44.845157623291016 -25.502979278564453,44.212162017822266 -23.700056076049805,43.702964782714844 -21.866161346435547,43.32001876831055 -20.0101261138916,43.06516647338867 -18.140884399414062,42.939632415771484 -16.267438888549805,42.944026947021484 -16.267438888549805,37.8338034341602 -19.267438888549805,37.84677624121038 -19.294597625732422,38.72129440307617 -19.435832977294922,39.309505462646484 -19.692203521728516,39.857421875 -20.053279876708984,40.342769622802734 -20.50438690185547,40.745811462402344 -21.027177810668945,41.0501594543457 -21.60039710998535,41.24344253540039 -23.65865126982498,41.63885584172979 -25.491140487075924,42.11726055900031 -27.444178176873102,42.769853046139524 -29.43779634790107,43.603511169985644 -31.09590593786591,44.43487758426934 -32.69710968507576,45.37119560847882 -34.23473837202221,46.40855847991914 -35.70238719933131,47.5426371608169 -37.09395118496138,48.768701176103335 -37.773536682128906,49.41940689086914 -38.79557079861393,50.495206828366236 -39.97005260928766,51.881892669050046 -41.05427254133484,53.340168458037226 -42.04384058140183,54.86410139913414 -42.33852304241408,55.3517752087372 -43.20281194347987,56.950293991940214 -43.9640793755205,58.60037221262063 -44.7200578442643,60.57920913445978 -45.28749484978892,62.45045919279582 -45.72891759858679,64.36274356771594 -46.119606018066406,66.70541381835938 -46.3410530090332,67.28279113769531 -46.676177978515625,67.80249786376953 -47.11073684692383,68.24244689941406 -47.62627029418945,68.58395385742188 -48.200870513916016,68.81250762939453 -48.810123443603516,68.91839599609375 -73.13749694824219,68.92549896240234 -73.26862716800315,66.9984474054752 -73.5969108494175,64.70901503307631 -74.00576686022556,62.82143319478782 -74.61203173087617,60.75450870669553 -75.09088841773784,59.42302023399007 -75.82109377336238,57.71558607486104 -76.07112754570592,57.18271544043262 -76.9393024886233,55.540947979878304 -77.91183677440337,53.95873297549592 -78.98461947057153,52.44275717456009 -80.15310674802367,50.99941298467735 -80.53959992315271,50.555464540242475 -81.82288545871074,49.212973613347344 -83.19031918845896,47.95625234154241 -84.63612470688908,46.79060329723684 -86.15418762630242,45.72094984807594 -86.64754922024856,45.39991779858658 -88.24850119467969,44.45863320220221 -89.90700326686395,43.62281909845856 -92.02169789527942,42.74235897022161 -93.8470344255427,42.132234677094374 -95.70383108582809,41.64463558523895 -97.9825668334961,41.19194030761719 -98.5414810180664,40.96052932739258 -99.04261779785156,40.62169647216797 -99.46558380126953,40.1892204284668 -99.7931900024414,39.68067932128906 -100.01211547851562,39.11675262451172 -100.11345672607422,38.5203742980957 -100.12025451660156,37.8338034341602 -103.12025451660156,37.84677624121038 -103.12025451660156,42.944026947021484 -101.24681091308594,42.939632415771484 -99.37757110595703,43.06516647338867 -97.52153015136719,43.32001876831055 -95.68763732910156,43.702964782714844 -93.88471221923828,44.212162017822266 -92.1214370727539,44.845157623291016 -90.40630340576172,45.59890365600586 -88.74756622314453,46.46977233886719 -87.15321350097656,47.45356750488281 -85.63092041015625,48.54555892944336 -84.18801879882812,49.740482330322266 -82.83145141601562,51.032588958740234 -81.5677490234375,52.41565704345703 -80.40299987792969,53.883026123046875 -79.34281158447266,55.427635192871094 -78.39228057861328,57.04204559326172 -77.55599975585938,58.718482971191406 -76.83797454833984,60.448875427246094 -76.2416763305664,62.22489547729492 -75.76997375488281,64.0379867553711 -75.42513275146484,65.87943267822266 -75.20882415771484,67.74034881591797 -75.12207794189453,69.6117935180664 -75.16531372070312,71.4847412109375 -75.33832550048828,73.35018920898438 -75.64028930664062,75.19914245605469 -76.06973266601562,77.02271270751953 -76.62460327148438,78.81210327148438 -77.3022232055664,80.5587158203125 -78.09932708740234,82.25413513183594 -79.0120849609375,83.89019012451172 -80.03610229492188,85.45902252197266 -81.16643524169922,86.95305633544922 -82.39765930175781,88.3651123046875 -83.72383880615234,89.68839263916016 -85.13858795166016,90.9165267944336 -86.63509368896484,92.04359436035156 -88.20616149902344,93.06417083740234 -89.84420776367188,93.97334289550781 -91.54136657714844,94.76673889160156 -93.28945922851562,95.44053649902344 -95.08006286621094,95.99149322509766 -96.9045639038086,96.41694641113281 -98.7541732788086,96.71485900878906 -100.6199951171875,96.8837890625 -102.49303436279297,96.92292785644531 -104.3642807006836,96.83208465576172 -106.22472381591797,96.61170196533203 -108.0654067993164,96.26283264160156 -109.8774642944336,95.78716278076172 -111.65217590332031,95.18698120117188 -113.38099670410156,94.46517944335938 -115.05560302734375,93.6252212524414 -116.66792297363281,92.6711654663086 -118.210205078125,91.60759735107422 -119.6750259399414,90.43964385986328 -121.05532836914062,89.17292022705078 -122.3444595336914,87.81352233886719 -123.53622436523438,86.36801147460938 -124.62488555908203,84.84333038330078 -125.60518646240234,83.24683380126953 -126.47242736816406,81.58618927001953 -127.22241973876953,79.86941528320312 -127.85155487060547,78.1047592163086 -128.35679626464844,76.30072784423828 -128.73573303222656,74.46599578857422 -128.9865264892578,72.60940551757812 -129.10797119140625,70.73989868164062 -129.09947204589844,68.86646270751953 -128.96109008789062,66.99813079833984 -128.6934814453125,65.1438980102539 -128.2979278564453,63.312679290771484 -127.7763442993164,61.51329803466797 -127.13123321533203,59.75442123413086 -126.36570739746094,58.04450988769531 -125.48345184326172,56.39180374145508 -124.48870849609375,54.804256439208984 -123.38627624511719,53.28950881958008 -122.18145751953125,51.8548583984375 -120.88005065917969,50.50720977783203 -119.48831939697266,49.2530517578125 -118.01297760009766,48.09842300415039 -116.46111297607422,47.04888153076172 -114.84020233154297,46.10948181152344 -113.15805053710938,45.28474426269531 -111.42276000976562,44.57863998413086 -109.64268493652344,43.99457550048828 -107.82638549804688,43.53535079956055 -105.98262023925781,43.20318603515625 -104.12025451660156,42.99967956542969 -104.12025451660156,38.146059455283456 -106.12025451660156,38.146059455283456 -106.13597068846416,39.75523596387171 -106.2374267578125,40.18621063232422 -106.41563415527344,40.55775833129883 -106.66619110107422,40.88490295410156 -106.97848510742188,41.153751373291016 -107.33924102783203,41.35289001464844 -107.733154296875,41.47386932373047 -109.70153045654297,41.933998107910156 -111.63306427001953,42.530128479003906 -113.51837921142578,43.259368896484375 -115.34831237792969,44.118167877197266 -117.11397552490234,45.102359771728516 -118.8067855834961,46.2071647644043 -120.41852569580078,47.427207946777344 -121.94135284423828,48.75656509399414 -123.36788177490234,50.18877410888672 -124.69116973876953,51.716880798339844 -125.90478515625,53.333457946777344 -127.00284576416016,55.03065490722656 -127.98001098632812,56.80021667480469 -128.83152770996094,58.63355255126953 -129.55325317382812,60.52175521850586 -130.14169311523438,62.45564651489258 -130.593994140625,64.42583465576172 -130.90792846679688,66.42273712158203 -131.08201599121094,68.4366683959961 -131.11537170410156,70.45782470703125 -131.00784301757812,72.47640228271484 -130.7599639892578,74.48258209228516 -130.3729248046875,76.46661376953125 -129.8486328125,78.41887664794922 -129.18959045410156,80.32986450195312 -128.3990478515625,82.19029998779297 -127.48080444335938,83.99114227294922 -126.4393539428711,85.72364807128906 -125.27973937988281,87.37939453125 -124.0075912475586,88.95033264160156 -122.62910461425781,90.42884063720703 -121.15097045898438,91.80772399902344 -119.58037567138672,93.08029174804688 -117.92494201660156,94.24034881591797 -116.19271850585938,95.28227233886719 -114.39212036132812,96.20098876953125 -112.53189086914062,96.9920425415039 -110.62108612060547,97.6515884399414 -108.6689682006836,98.17642211914062 -106.6850357055664,98.5639877319336 -104.67892456054688,98.81240844726562 -102.6603775024414,98.92047119140625 -100.63920593261719,98.88765716552734 -98.62523651123047,98.71412658691406 -96.62824249267578,98.40071868896484 -94.6579360961914,97.9489517211914 -92.72388458251953,97.36103057861328 -90.83548736572266,96.63980865478516 -89.00192260742188,95.78878784179688 -87.23210144042969,94.81210327148438 -85.53460693359375,93.7145004272461 -83.9177017211914,92.50131225585938 -82.38924407958984,91.17843627929688 -80.95664978027344,89.7522964477539 -79.62688446044922,88.22982025146484 -78.40640258789062,86.61841583251953 -77.3011474609375,84.9259033203125 -76.31648254394531,83.1604995727539 -75.45718383789062,81.33079528808594 -74.7274398803711,79.4456787109375 -74.13079071044922,77.5143051147461 -73.67013549804688,75.54605865478516 -73.2680892944336,73.14559173583984 -73.04663848876953,72.5682144165039 -72.71151733398438,72.04850769042969 -72.2769546508789,71.60855865478516 -71.76142120361328,71.26704406738281 -71.18682098388672,71.03849029541016 -70.57756805419922,70.93260955810547 -48.810123443603516,70.93260955810547 -48.200870513916016,71.03849029541016 -47.62627029418945,71.26704406738281 -47.11073684692383,71.60855865478516 -46.676177978515625,72.04850769042969 -46.3410530090332,72.5682144165039 -46.119606018066406,73.14559173583984 -45.717559814453125,75.54605865478516 -45.25690460205078,77.5143051147461 -44.66025161743164,79.4456787109375 -43.93050765991211,81.33079528808594 -43.07121276855469,83.1604995727539 -42.0865478515625,84.9259033203125 -40.98128890991211,86.61841583251953 -39.76081085205078,88.22982025146484 -38.43104553222656,89.7522964477539 -36.998451232910156,91.17843627929688 -35.46998977661133,92.50131225585938 -33.853084564208984,93.7145004272461 -32.15559387207031,94.81210327148438 -30.38576889038086,95.78878784179688 -28.552202224731445,96.63980865478516 -26.663806915283203,97.36103057861328 -24.72975730895996,97.9489517211914 -22.759450912475586,98.40071868896484 -20.76245880126953,98.71412658691406 -18.748485565185547,98.88765716552734 -16.72731590270996,98.92047119140625 -14.708771705627441,98.81240844726562 -12.702659606933594,98.5639877319336 -10.718725204467773,98.17642211914062 -8.766610145568848,97.6515884399414 -6.855798721313477,96.9920425415039 -4.995573997497559,96.20098876953125 -3.1949756145477295,95.28227233886719 -1.4627515077590942,94.24034881591797 0.19268174469470978,93.08029174804688 1.7632807493209839,91.80772399902344 3.2414145469665527,90.42884063720703 4.619901180267334,88.95033264160156 5.892042636871338,87.37939453125 7.0516581535339355,85.72364807128906 8.093113899230957,83.99114227294922 9.011348724365234,82.19029998779297 9.801902770996094,80.32986450195312 10.460932731628418,78.41887664794922 10.985238075256348,76.46661376953125 11.372271537780762,74.48258209228516 11.62015151977539,72.47640228271484 11.72767448425293,70.45782470703125 11.694316864013672,68.4366683959961 11.520242691040039,66.42273712158203 11.20629596710205,64.42583465576172 10.754003524780273,62.45564651489258 10.16556167602539,60.52175521850586 9.443829536437988,58.63355255126953 8.592314720153809,56.80021667480469 7.615153789520264,55.03065490722656 6.51709508895874,53.333457946777344 5.303473472595215,51.716880798339844 3.9801857471466064,50.18877410888672 2.5536611080169678,48.75656509399414 1.030830979347229,47.427207946777344 -0.5809056758880615,46.2071647644043 -2.2737178802490234,45.102359771728516 -4.0393805503845215,44.118167877197266 -5.869315147399902,43.259368896484375 -7.7546305656433105,42.530128479003906 " /><polygon points="-13.267439842224121,19.442465247519785 -15.267439842224121,19.442465247519785 -15.267439842224121,22.499095916748047 -13.267439842224121,22.499095916748047 " /><polygon points="-106.12025451660156,22.499095916748047 -104.12025451660156,22.499095916748047 -104.12025451660156,19.442465247519785 -106.12025451660156,19.442465247519785 " /><polygon points="-106.12025451660156,35.55572658597631 -104.12025451660156,35.55572658597631 -104.12025451660156,32.49909591674805 -106.12025451660156,32.49909591674805 " /><polygon points="-13.267439842224121,32.49909591674805 -15.267439842224121,32.49909591674805 -15.267439842224121,35.55572658597631 -13.267439842224121,35.55572658597631 " /><polygon points="-70.62377413837123,-13.91542034238926 -71.18682098388672,-13.81432056427002 -71.76142120361328,-13.585766792297363 -72.2769546508789,-13.244257926940918 -72.71151733398438,-12.804304122924805 -73.04663848876953,-12.284598350524902 -73.2680892944336,-11.707222938537598 -73.65877475752268,-9.364551638852257 -74.10020046271109,-7.452268837494994 -74.76845444290198,-5.297115968619627 -75.31470142212724,-3.8627838811172777 -76.07009975252105,-2.189419434362909 -76.93070967661787,-0.5678022660704657 -77.2238690722788,-0.05738524083061469 -78.2140197476665,1.4887718282058027 -79.30085101843555,2.9685894103939585 -80.47991141885446,4.375983320330543 -81.74633184535124,5.7051725745128055 -82.1681484207434,6.115707552398324 -83.53885012800507,7.337196895454448 -84.98477258853391,8.46873202151268 -86.49996432606652,9.50565694192707 -88.07820716930816,10.443713099916511 -89.71298926294814,11.279053152648821 -90.24586129212506,11.529086924992367 -92.22742028293254,12.329159064119983 -93.89655396711736,12.880931489072465 -95.7290431843683,13.359333989050075 -97.9825668334961,13.806251525878906 -98.5414810180664,14.037660598754883 -99.04261779785156,14.376493453979492 -99.46558380126953,14.808971405029297 -99.7931900024414,15.317511558532715 -100.01211547851562,15.881436347961426 -100.11345672607422,16.477815628051758 -100.12025451660156,17.164386491987262 -103.12025451660156,17.151413685889253 -103.12025451660156,12.054163932800293 -101.24681091308594,12.05855655670166 -99.37757110595703,11.933024406433105 -97.52153015136719,11.67817211151123 -95.68763732910156,11.295225143432617 -93.88471221923828,10.786028861999512 -92.1214370727539,10.153034210205078 -90.40630340576172,9.399287223815918 -88.74756622314453,8.528419494628906 -87.15321350097656,7.544622421264648 -85.63092041015625,6.452632904052734 -84.18801879882812,5.2577080726623535 -82.83145141601562,3.9656009674072266 -81.5677490234375,2.5825328826904297 -80.40299987792969,1.1151624917984009 -79.34281158447266,-0.4294453263282776 -78.39228057861328,-2.043853998184204 -77.55599975585938,-3.7202911376953125 -76.83797454833984,-5.450685024261475 -76.2416763305664,-7.2267045974731445 -75.76997375488281,-9.039799690246582 -75.42513275146484,-10.881239891052246 -75.20882415771484,-12.74216079711914 -75.12207794189453,-14.613601684570312 -75.16531372070312,-16.486553192138672 -75.33832550048828,-18.35199737548828 -75.64028930664062,-20.20095443725586 -76.06973266601562,-22.024520874023438 -76.62460327148438,-23.813915252685547 -77.3022232055664,-25.560527801513672 -78.09932708740234,-27.255943298339844 -79.0120849609375,-28.89200210571289 -80.03610229492188,-30.46082878112793 -81.16643524169922,-31.954866409301758 -82.39765930175781,-33.36692428588867 -83.72383880615234,-34.69020462036133 -85.13858795166016,-35.9183349609375 -86.63509368896484,-37.04540252685547 -88.20616149902344,-38.06597900390625 -89.84420776367188,-38.975154876708984 -91.54136657714844,-39.768550872802734 -93.28945922851562,-40.44234848022461 -95.08006286621094,-40.9932975769043 -96.9045639038086,-41.41875457763672 -98.7541732788086,-41.71666717529297 -100.6199951171875,-41.885597229003906 -102.49303436279297,-41.924739837646484 -104.3642807006836,-41.83389663696289 -106.22472381591797,-41.6135139465332 -108.0654067993164,-41.264644622802734 -109.8774642944336,-40.78897476196289 -111.65217590332031,-40.18879318237305 -113.38099670410156,-39.46698760986328 -115.05560302734375,-38.62703323364258 -116.66792297363281,-37.672977447509766 -118.210205078125,-36.60940933227539 -119.6750259399414,-35.44145202636719 -121.2121353149414,-34.019195556640625 -122.3444595336914,-32.81533432006836 -123.53622436523438,-31.36981964111328 -124.62488555908203,-29.84514045715332 -125.60518646240234,-28.248640060424805 -126.47242736816406,-26.588001251220703 -127.22241973876953,-24.87122344970703 -127.85155487060547,-23.1065673828125 -128.35679626464844,-21.302534103393555 -128.73573303222656,-19.467805862426758 -128.9865264892578,-17.611217498779297 -129.10797119140625,-15.741706848144531 -129.09947204589844,-13.86827564239502 -128.96109008789062,-11.999942779541016 -128.6934814453125,-10.14570426940918 -128.2979278564453,-8.31448745727539 -127.7763442993164,-6.515108108520508 -127.13123321533203,-4.756229877471924 -126.36570739746094,-3.046320915222168 -125.48345184326172,-1.3936136960983276 -124.48870849609375,0.1939346045255661 -123.38627624511719,1.7086806297302246 -122.18145751953125,3.14333176612854 -120.88005065917969,4.490980625152588 -119.48831939697266,5.745138645172119 -118.01297760009766,6.899767875671387 -116.46111297607422,7.949309349060059 -114.84020233154297,8.888710021972656 -113.15805053710938,9.713446617126465 -111.42276000976562,10.419548988342285 -109.64268493652344,11.003617286682129 -107.82638549804688,11.462839126586914 -105.98262023925781,11.795003890991211 -104.12025451660156,11.998512268066406 -104.12025451660156,16.852132378212637 -106.12025451660156,16.852132378212637 -106.12817420899678,15.318217998554859 -106.20494193853953,14.913532477184038 -106.3630222291921,14.53316987065578 -106.59569892499626,14.19327698189266 -106.8930927230134,13.908283713954601 -107.24257888267832,13.690286567275502 -107.62932586104804,13.548541356451397 -109.70153045654297,13.064191818237305 -111.63306427001953,12.468061447143555 -113.51837921142578,11.738823890686035 -115.34831237792969,10.880022048950195 -117.11397552490234,9.895829200744629 -118.8067855834961,8.791027069091797 -120.41852569580078,7.570983409881592 -121.94135284423828,6.241626739501953 -123.36788177490234,4.809415817260742 -124.69116973876953,3.281309127807617 -125.90478515625,1.664731502532959 -127.00284576416016,-0.03246253728866577 -127.98001098632812,-1.8020268678665161 -128.83152770996094,-3.6353635787963867 -129.55325317382812,-5.52356481552124 -130.14169311523438,-7.457456588745117 -130.593994140625,-9.427641868591309 -130.90792846679688,-11.424549102783203 -131.08201599121094,-13.438475608825684 -131.11537170410156,-15.459635734558105 -131.00784301757812,-17.478208541870117 -130.7599639892578,-19.48438835144043 -130.3729248046875,-21.468427658081055 -129.8486328125,-23.420682907104492 -129.18959045410156,-25.33167266845703 -128.3990478515625,-27.192110061645508 -127.48080444335938,-28.99295425415039 -126.4393539428711,-30.725460052490234 -125.27973937988281,-32.381202697753906 -124.0075912475586,-33.952144622802734 -122.62910461425781,-35.43064880371094 -121.15097045898438,-36.80953598022461 -119.58037567138672,-38.08209991455078 -117.92494201660156,-39.24216079711914 -116.19271850585938,-40.284080505371094 -114.39212036132812,-41.20280075073242 -112.53189086914062,-41.99385452270508 -110.62108612060547,-42.65340042114258 -108.6689682006836,-43.17823028564453 -106.6850357055664,-43.5657958984375 -104.67892456054688,-43.81421661376953 -102.6603775024414,-43.92228317260742 -100.63920593261719,-43.889469146728516 -98.62523651123047,-43.71593475341797 -96.62824249267578,-43.40252685546875 -94.6579360961914,-42.95076370239258 -92.72388458251953,-42.36284255981445 -90.83548736572266,-41.64161682128906 -89.00192260742188,-40.79059600830078 -87.23210144042969,-39.81391143798828 -85.53460693359375,-38.71630859375 -83.9177017211914,-37.50312042236328 -82.38924407958984,-36.18024444580078 -80.95664978027344,-34.75410461425781 -79.62688446044922,-33.231632232666016 -78.40640258789062,-31.620223999023438 -77.3011474609375,-29.927709579467773 -76.31648254394531,-28.162311553955078 -75.45718383789062,-26.33260726928711 -74.7274398803711,-24.44748878479004 -74.13079071044922,-22.516115188598633 -73.67013549804688,-20.547866821289062 -73.2680892944336,-18.14739990234375 -73.04663848876953,-17.570024490356445 -72.71151733398438,-17.05031967163086 -72.2769546508789,-16.61036491394043 -71.76142120361328,-16.268856048583984 -71.18682098388672,-16.040302276611328 -70.57756805419922,-15.934415817260742 -48.76391821773823,-15.939203237589725 -48.200870513916016,-16.040302276611328 -47.62627029418945,-16.268856048583984 -47.11073684692383,-16.61036491394043 -46.676177978515625,-17.05031967163086 -46.3410530090332,-17.570024490356445 -46.119606018066406,-18.14739990234375 -45.717559814453125,-20.547866821289062 -45.25690460205078,-22.516115188598633 -44.66025161743164,-24.44748878479004 -43.93050765991211,-26.33260726928711 -43.07121276855469,-28.162311553955078 -42.0865478515625,-29.927709579467773 -40.98128890991211,-31.620223999023438 -39.76081085205078,-33.231632232666016 -38.28310606868946,-34.906947584108295 -36.998451232910156,-36.18024444580078 -35.46998977661133,-37.50312042236328 -33.853084564208984,-38.71630859375 -32.15559387207031,-39.81391143798828 -30.38576889038086,-40.79059600830078 -28.552202224731445,-41.64161682128906 -26.663806915283203,-42.36284255981445 -24.72975730895996,-42.95076370239258 -22.759450912475586,-43.40252685546875 -20.76245880126953,-43.71593475341797 -18.748485565185547,-43.889469146728516 -16.72731590270996,-43.92228317260742 -14.708771705627441,-43.81421661376953 -12.702659606933594,-43.5657958984375 -10.718725204467773,-43.17823028564453 -8.766610145568848,-42.65340042114258 -6.855798721313477,-41.99385452270508 -4.995573997497559,-41.20280075073242 -3.1949756145477295,-40.284080505371094 -1.4627515077590942,-39.24216079711914 0.19268174469470978,-38.08209991455078 1.7632807493209839,-36.80953598022461 3.2414145469665527,-35.43064880371094 4.619901180267334,-33.952144622802734 5.892042636871338,-32.381202697753906 7.0516581535339355,-30.725460052490234 8.093113899230957,-28.99295425415039 9.011348724365234,-27.192110061645508 9.801902770996094,-25.33167266845703 10.460932731628418,-23.420682907104492 10.985238075256348,-21.468427658081055 11.372271537780762,-19.48438835144043 11.62015151977539,-17.478208541870117 11.72767448425293,-15.459635734558105 11.694316864013672,-13.438475608825684 11.520242691040039,-11.424549102783203 11.20629596710205,-9.427641868591309 10.754003524780273,-7.457456588745117 10.16556167602539,-5.52356481552124 9.443829536437988,-3.6353635787963867 8.592314720153809,-1.8020268678665161 7.615153789520264,-0.03246253728866577 6.51709508895874,1.664731502532959 5.303473472595215,3.281309127807617 3.9801857471466064,4.809415817260742 2.5536611080169678,6.241626739501953 1.030830979347229,7.570983409881592 -0.5809056758880615,8.791027069091797 -2.2737178802490234,9.895829200744629 -4.0393805503845215,10.880022048950195 -5.869315147399902,11.738823890686035 -7.7546305656433105,12.468061447143555 -9.686165809631348,13.064191818237305 -11.94892136508911,13.607064173524677 -12.319629139792907,13.78661937398914 -12.645670242950706,14.038336249086672 -12.913204285279097,14.351529974867068 -13.11087336325833,14.712903684945537 -13.230286835630924,15.107117671017408 -13.267439842224121,15.48650074005127 -13.267439842224121,16.852132378212637 -15.267439842224121,16.852132378212637 -15.267439842224121,11.998512268066406 -13.405075073242188,11.795003890991211 -11.56130599975586,11.462839126586914 -9.745010375976562,11.003617286682129 -7.964931011199951,10.419548988342285 -6.229639530181885,9.713446617126465 -4.547490119934082,8.888710021972656 -2.926581621170044,7.949309349060059 -1.374718189239502,6.899767875671387 0.10062868893146515,5.745138645172119 1.4923559427261353,4.490980625152588 2.7937629222869873,3.14333176612854 3.9985837936401367,1.7086806297302246 5.10101842880249,0.1939346045255661 6.095758438110352,-1.3936136960983276 6.9780144691467285,-3.046320915222168 7.743539810180664,-4.756229877471924 8.38864803314209,-6.515108108520508 8.910233497619629,-8.31448745727539 9.305784225463867,-10.14570426940918 9.573396682739258,-11.999942779541016 9.711782455444336,-13.86827564239502 9.720274925231934,-15.741706848144531 9.598834037780762,-17.611217498779297 9.348042488098145,-19.467805862426758 8.969109535217285,-21.302534103393555 8.463859558105469,-23.1065673828125 7.834723949432373,-24.87122344970703 7.084732532501221,-26.588001251220703 6.217496395111084,-28.248640060424805 5.237189769744873,-29.84514045715332 4.148533821105957,-31.36981964111328 2.9567689895629883,-32.81533432006836 1.6676335334777832,-34.17472839355469 0.2873338460922241,-35.44145202636719 -1.177484393119812,-36.60940933227539 -2.719768762588501,-37.672977447509766 -4.332093715667725,-38.62703323364258 -6.006696701049805,-39.46698760986328 -7.735515594482422,-40.18879318237305 -9.510226249694824,-40.78897476196289 -11.322284698486328,-41.264644622802734 -13.162965774536133,-41.6135139465332 -15.023408889770508,-41.83389663696289 -16.894655227661133,-41.924739837646484 -18.767698287963867,-41.885597229003906 -20.633516311645508,-41.71666717529297 -22.483129501342773,-41.41875457763672 -24.30763053894043,-40.9932975769043 -26.098236083984375,-40.44234848022461 -27.846324920654297,-39.768550872802734 -29.543481826782227,-38.975154876708984 -31.181533813476562,-38.06597900390625 -32.75259780883789,-37.04540252685547 -34.24910354614258,-35.9183349609375 -35.66385269165039,-34.69020462036133 -36.848122337242906,-33.513685294293914 -38.221256256103516,-31.954866409301758 -39.351593017578125,-30.46082878112793 -40.375606536865234,-28.89200210571289 -41.28836441040039,-27.255943298339844 -42.085472106933594,-25.560527801513672 -42.763092041015625,-23.813915252685547 -43.31795883178711,-22.024520874023438 -43.747406005859375,-20.20095443725586 -44.04936599731445,-18.35199737548828 -44.22237777709961,-16.486553192138672 -44.26561737060547,-14.613601684570312 -44.178871154785156,-12.74216079711914 -43.96255874633789,-10.881239891052246 -43.61771774291992,-9.039799690246582 -43.14601516723633,-7.2267045974731445 -42.54971694946289,-5.450685024261475 -41.831695556640625,-3.7202911376953125 -40.99540710449219,-2.043853998184204 -40.044883728027344,-0.4294453263282776 -38.98469161987305,1.1151624917984009 -37.819942474365234,2.5825328826904297 -36.55624008178711,3.9656009674072266 -35.19967269897461,5.2577080726623535 -33.75676727294922,6.452632904052734 -32.23447799682617,7.544622421264648 -30.64012336730957,8.528419494628906 -28.981388092041016,9.399287223815918 -27.266252517700195,10.153034210205078 -25.502979278564453,10.786028861999512 -23.700056076049805,11.295225143432617 -21.866161346435547,11.67817211151123 -20.0101261138916,11.933024406433105 -18.140884399414062,12.05855655670166 -16.267438888549805,12.054163932800293 -16.267438888549805,17.164386491987262 -19.267438888549805,17.151413685889253 -19.294597625732422,16.276897430419922 -19.435832977294922,15.68868637084961 -19.692203521728516,15.140769004821777 -20.053279876708984,14.655421257019043 -20.50438690185547,14.252379417419434 -21.027177810668945,13.948029518127441 -21.60039710998535,13.75474739074707 -23.65865126982498,13.359333989050075 -25.491140487075924,12.880931489072465 -27.444178176873102,12.228337577382183 -29.403720550162426,11.410713923253725 -31.046229180889988,10.590208764150447 -32.63300286022009,9.666535252592084 -34.15751672711306,8.643497842894748 -35.61351382553492,7.5253113316056615 -36.068263202278004,7.151585335468922 -37.42832958275359,5.91820576153373 -38.70689966334862,4.60050993228507 -39.89872656624665,3.203917564859161 -40.998910789512806,1.73417621238088 -41.33383034971922,1.250133652265037 -42.31048580826381,-0.3045429437190883 -43.1859340919998,-1.9184364525245794 -43.95657144439768,-3.5849122364857844 -44.7200578442643,-5.581019813299512 -45.28749484978892,-7.452268837494994 -45.72891759858679,-9.364551638852257 -46.119606018066406,-11.707222938537598 -46.3410530090332,-12.284598350524902 -46.676177978515625,-12.804304122924805 -47.11073684692383,-13.244257926940918 -47.62627029418945,-13.585766792297363 -48.200870513916016,-13.81432056427002 -48.810123443603516,-13.920207977294922 " /><polygon points="-100.12025451660156,35.85509508423803 -100.12025451660156,19.130210727081494 -103.12025451660156,19.143028472580564 -103.12025451660156,35.8679787924023 " /><polygon points="-19.267438888549805,19.143028472580564 -19.267438888549805,35.8679787924023 -16.267438888549805,35.85509508423803 -16.267438888549805,19.130210727081494 " /></svg>
